<?xml version="1.0" encoding="utf-8"?>
<!-- Generator: Adobe Illustrator 25.2.3, SVG Export Plug-In . SVG Version: 6.00 Build 0)  -->
<svg version="1.1" id="Layer_1" xmlns="http://www.w3.org/2000/svg" xmlns:xlink="http://www.w3.org/1999/xlink" x="0px" y="0px"
	 viewBox="0 0 820 360" style="enable-background:new 0 0 820 360;" xml:space="preserve">
<style type="text/css">
	.st0{clip-path:url(#SVGID_2_);}
	.st1{clip-path:url(#SVGID_4_);}
	.st2{clip-path:url(#SVGID_6_);fill:url(#SVGID_7_);}
	.st3{fill:#8FD6E7;}
	.st4{clip-path:url(#SVGID_9_);}
	.st5{clip-path:url(#SVGID_11_);fill:url(#SVGID_12_);}
	.st6{clip-path:url(#SVGID_14_);fill:url(#SVGID_15_);}
	.st7{fill:#00403D;}
	.st8{fill:none;stroke:#00403D;stroke-width:10;stroke-miterlimit:10;}
	.st9{fill:none;stroke:#00403D;stroke-width:6;stroke-miterlimit:10;}
	.st10{fill:#009893;}
	.st11{fill:#FFFFFF;}
	.st12{clip-path:url(#SVGID_17_);}
	.st13{clip-path:url(#SVGID_19_);fill:url(#SVGID_20_);}
	.st14{clip-path:url(#SVGID_22_);}
	.st15{clip-path:url(#SVGID_24_);fill:url(#SVGID_25_);}
	.st16{fill:#FFDE17;}
	.st17{fill:#5BC4BF;}
	.st18{clip-path:url(#SVGID_27_);fill:#009893;}
	.st19{fill:#BCBEC0;}
	.st20{fill:#282829;}
	.st21{clip-path:url(#SVGID_29_);}
	.st22{clip-path:url(#SVGID_31_);fill:url(#SVGID_32_);}
	.st23{clip-path:url(#SVGID_34_);fill:#009893;}
	.st24{fill:none;}
	.st25{clip-path:url(#SVGID_36_);}
	.st26{fill:#F2CD23;}
	.st27{fill:#F6EB16;}
</style>
<g>
	<defs>
		<rect id="SVGID_1_" width="819.38" height="359.68"/>
	</defs>
	<clipPath id="SVGID_2_">
		<use xlink:href="#SVGID_1_"  style="overflow:visible;"/>
	</clipPath>
	<g class="st0">
		<defs>
			<rect id="SVGID_3_" x="-36.14" y="-168.32" width="892" height="792.72"/>
		</defs>
		<clipPath id="SVGID_4_">
			<use xlink:href="#SVGID_3_"  style="overflow:visible;"/>
		</clipPath>
		<g class="st1">
			<defs>
				<rect id="SVGID_5_" x="-75.42" y="-362.2" width="973.82" height="1103.15"/>
			</defs>
			<clipPath id="SVGID_6_">
				<use xlink:href="#SVGID_5_"  style="overflow:visible;"/>
			</clipPath>
			
				<radialGradient id="SVGID_7_" cx="326.5179" cy="544.8504" r="513.0782" gradientTransform="matrix(1.0861 0 0 0.58 54.0318 26.6841)" gradientUnits="userSpaceOnUse">
				<stop  offset="0.1188" style="stop-color:#FFF200"/>
				<stop  offset="0.3435" style="stop-color:#F7941D"/>
				<stop  offset="0.7583" style="stop-color:#8FD6E7"/>
			</radialGradient>
			<rect x="-78.24" y="-208.85" class="st2" width="973.82" height="1103.15"/>
		</g>
	</g>
</g>
<g>
	<path class="st24" d="M184.63,48.52l-24.72-99.29h-0.41l-24.31,99.29H102.7L64.09-97.34h32.07l23.08,99.29h0.41l25.33-99.29h30.03
		L199.95,3.17h0.41l23.9-100.51h31.46L216.5,48.52H184.63z"/>
	<path class="st24" d="M387.69-97.34v26.97h-77.02v31.26h70.69v24.92h-70.69v35.75h78.65v26.97H278.6V-97.34H387.69z"/>
	<path class="st24" d="M562.77-97.34c6.54,0,12.43,1.06,17.67,3.17c5.24,2.11,9.74,5,13.48,8.68c3.75,3.68,6.6,7.94,8.58,12.77
		c1.97,4.84,2.96,10.05,2.96,15.63c0,8.58-1.81,16-5.41,22.27c-3.61,6.27-9.5,11.03-17.67,14.3v0.41c3.95,1.09,7.22,2.76,9.81,5
		c2.59,2.25,4.7,4.9,6.33,7.97c1.63,3.06,2.83,6.44,3.58,10.11c0.75,3.68,1.26,7.35,1.53,11.03c0.13,2.32,0.27,5.04,0.41,8.17
		c0.13,3.13,0.37,6.33,0.71,9.6c0.34,3.27,0.88,6.37,1.63,9.29c0.75,2.93,1.87,5.41,3.37,7.46h-32.07
		c-1.77-4.63-2.86-10.14-3.27-16.55c-0.41-6.4-1.02-12.53-1.84-18.39c-1.09-7.62-3.41-13.21-6.95-16.75
		c-3.54-3.54-9.33-5.31-17.37-5.31h-32.07v57h-32.07V-97.34H562.77z M551.33-31.36c7.35,0,12.87-1.63,16.55-4.9
		c3.68-3.27,5.52-8.58,5.52-15.94c0-7.08-1.84-12.22-5.52-15.42c-3.68-3.2-9.19-4.8-16.55-4.8h-35.14v41.06H551.33z"/>
	<path class="st24" d="M748.87-97.34v26.97h-77.02v31.26h70.69v24.92h-70.69v35.75h78.65v26.97H639.78V-97.34H748.87z"/>
	<path class="st7" d="M166.02,98.54c7.7,0,14.72,0.68,21.06,2.04c6.34,1.36,11.77,3.59,16.3,6.68c4.53,3.1,8.04,7.21,10.53,12.34
		c2.49,5.13,3.74,11.47,3.74,19.02c0,8.15-1.85,14.94-5.55,20.38c-3.7,5.43-9.17,9.89-16.42,13.36c9.96,2.87,17.39,7.89,22.3,15.06
		c4.9,7.17,7.36,15.81,7.36,25.92c0,8.15-1.58,15.21-4.75,21.17c-3.17,5.96-7.44,10.83-12.79,14.6c-5.36,3.78-11.47,6.57-18.34,8.38
		c-6.87,1.81-13.92,2.72-21.17,2.72H89.94V98.54H166.02z M161.49,163.97c6.34,0,11.55-1.51,15.62-4.53
		c4.08-3.02,6.11-7.92,6.11-14.72c0-3.77-0.68-6.87-2.04-9.28c-1.36-2.41-3.17-4.3-5.43-5.66s-4.87-2.3-7.81-2.83
		c-2.94-0.53-6-0.79-9.17-0.79h-33.28v37.81H161.49z M163.53,232.58c3.47,0,6.79-0.34,9.96-1.02c3.17-0.68,5.96-1.81,8.38-3.4
		c2.41-1.58,4.34-3.74,5.77-6.45c1.43-2.72,2.15-6.19,2.15-10.42c0-8.3-2.34-14.22-7.02-17.77c-4.68-3.54-10.87-5.32-18.57-5.32
		h-38.72v44.38H163.53z"/>
	<path class="st7" d="M339,98.54l60.45,161.66h-36.91l-12.23-36h-60.45l-12.68,36h-35.77l61.13-161.66H339z M341.04,197.71
		l-20.38-59.32h-0.45l-21.06,59.32H341.04z"/>
	<path class="st7" d="M526.25,141.67c-2.12-3.4-4.75-6.38-7.92-8.94c-3.17-2.56-6.76-4.56-10.75-6c-4-1.43-8.19-2.15-12.57-2.15
		c-8,0-14.79,1.55-20.38,4.64c-5.59,3.09-10.11,7.25-13.58,12.45c-3.47,5.21-6,11.13-7.58,17.77c-1.58,6.64-2.38,13.51-2.38,20.6
		c0,6.79,0.79,13.4,2.38,19.81c1.58,6.42,4.11,12.19,7.58,17.32c3.47,5.13,8,9.25,13.58,12.34c5.58,3.1,12.38,4.64,20.38,4.64
		c10.87,0,19.36-3.32,25.47-9.96c6.11-6.64,9.85-15.4,11.21-26.26h34.42c-0.91,10.11-3.25,19.25-7.02,27.4
		c-3.78,8.15-8.76,15.1-14.94,20.83c-6.19,5.74-13.44,10.11-21.74,13.13c-8.3,3.02-17.43,4.53-27.4,4.53
		c-12.38,0-23.51-2.15-33.4-6.45c-9.89-4.3-18.23-10.22-25.02-17.77c-6.79-7.55-12-16.42-15.62-26.6
		c-3.62-10.19-5.43-21.17-5.43-32.94c0-12.07,1.81-23.28,5.43-33.62c3.62-10.34,8.83-19.36,15.62-27.06
		c6.79-7.7,15.13-13.73,25.02-18.11c9.88-4.38,21.02-6.57,33.4-6.57c8.9,0,17.32,1.28,25.25,3.85c7.92,2.57,15.02,6.3,21.28,11.21
		c6.26,4.91,11.43,10.98,15.51,18.23c4.08,7.25,6.64,15.55,7.7,24.91h-34.42C529.72,148.8,528.36,145.07,526.25,141.67z"/>
	<path class="st7" d="M634.93,98.54v67.02l63.17-67.02h44.38l-63.17,63.85l69.28,97.81h-44.6l-48.68-72.68l-20.38,20.6v52.08h-35.55
		V98.54H634.93z"/>
</g>
<g>
	<path class="st7" d="M113.62,77.88l-4.84-19.44h-0.08l-4.76,19.44h-6.36l-7.56-28.56h6.28l4.52,19.44h0.08l4.96-19.44h5.88
		L116.62,69h0.08l4.68-19.68h6.16l-7.68,28.56H113.62z"/>
	<path class="st7" d="M151.54,49.32v5.28h-15.08v6.12h13.84v4.88h-13.84v7h15.4v5.28h-21.68V49.32H151.54z"/>
	<path class="st7" d="M161.28,49.32v6.12c0.03,0.88-0.1,1.71-0.38,2.48c-0.28,0.77-0.67,1.45-1.18,2.04
		c-0.51,0.59-1.11,1.07-1.82,1.46c-0.71,0.39-1.47,0.63-2.3,0.74v-2.64c1.01-0.35,1.71-0.86,2.08-1.54c0.37-0.68,0.56-1.51,0.56-2.5
		h-2.64v-6.16H161.28z"/>
	<path class="st7" d="M181.84,49.32c1.28,0,2.43,0.21,3.46,0.62c1.03,0.41,1.91,0.98,2.64,1.7c0.73,0.72,1.29,1.55,1.68,2.5
		c0.39,0.95,0.58,1.97,0.58,3.06c0,1.68-0.35,3.13-1.06,4.36c-0.71,1.23-1.86,2.16-3.46,2.8v0.08c0.77,0.21,1.41,0.54,1.92,0.98
		c0.51,0.44,0.92,0.96,1.24,1.56c0.32,0.6,0.55,1.26,0.7,1.98c0.15,0.72,0.25,1.44,0.3,2.16c0.03,0.45,0.05,0.99,0.08,1.6
		c0.03,0.61,0.07,1.24,0.14,1.88c0.07,0.64,0.17,1.25,0.32,1.82c0.15,0.57,0.37,1.06,0.66,1.46h-6.28
		c-0.35-0.91-0.56-1.99-0.64-3.24c-0.08-1.25-0.2-2.45-0.36-3.6c-0.21-1.49-0.67-2.59-1.36-3.28c-0.69-0.69-1.83-1.04-3.4-1.04
		h-6.28v11.16h-6.28V49.32H181.84z M179.6,62.24c1.44,0,2.52-0.32,3.24-0.96c0.72-0.64,1.08-1.68,1.08-3.12
		c0-1.39-0.36-2.39-1.08-3.02c-0.72-0.63-1.8-0.94-3.24-0.94h-6.88v8.04H179.6z"/>
	<path class="st7" d="M216.34,49.32v5.28h-15.08v6.12h13.84v4.88h-13.84v7h15.4v5.28h-21.68V49.32H216.34z"/>
</g>
<rect x="41.14" y="26.86" class="st9" width="739.27" height="258.94"/>
<g>
	<path class="st10" d="M369.54,351.56l-0.12-1.19l-0.16-1.52l-0.02-0.18l-0.11-1.01l-0.16-1.52l-0.08-0.7l-0.05-0.49l-0.15-1.49
		l0-0.03l-0.08-0.84l-0.04-0.35l-0.11-1.1l-0.04-0.43l-0.05-0.44l-0.08-0.75l-0.07-0.7l-0.09-0.83l0-0.04l-0.12-1.15l-0.03-0.3
		l-0.09-0.87l-0.04-0.36l-0.11-1.09l-0.01-0.1l-0.08-0.77l-0.08-0.76l-0.07-0.69l-0.04-0.4v-0.11v-0.36l0-1.16v-1.19l0-1.41v-0.11
		l0-0.75v-0.44v-1.52v-0.36l0-0.83v-0.61l0-0.87v-0.04v-1.19v-0.21l0-0.87v-0.44v-1.19v-0.68l0-0.84v-1.19v-1.58v-0.15l0-0.87v-0.17
		l0-1.28v-0.24v-1.19l0-0.88v-0.64v-1.19v-0.48l0-0.87v-0.17l0-1.19v-1.52l0-0.87v-0.31v-0.55l0-0.97v-1.19v-0.15l0-1.37v-0.08
		l0-0.87v-0.24v-1.53l0-1.19v-1.52l0-0.7v-0.49l0-1.52v-1.19v-0.72l0-0.8l0-1.19v-1.52l0-1.19l0-1.52v-1.19v-1.52v-1.19l0.01-5.64
		l-10.48,3.04l-1.16-27.15h-0.66l-2.28,28.34v0l-4.83,1.4l-4.09,1.19l-1.69,0.49l-0.53,1.03l-0.61,1.19l-0.33,0.65l-4.46-0.65
		l-3.11-0.45l-0.02,0.45l-0.07,1.52l-0.05,1.19l-0.07,1.52l-0.05,1.19l-0.07,1.52l-0.05,1.19l-0.07,1.52l-0.05,1.19l-0.07,1.52
		l-0.05,1.19l-0.07,1.53l-0.05,1.19l-0.07,1.52l-0.06,1.19l-0.07,1.52l-0.05,1.19l-0.07,1.52l-0.05,1.19l-0.07,1.52l-0.05,1.19
		l-0.07,1.52l-0.05,1.19l-0.07,1.52l-0.05,1.19l-0.07,1.58l-0.05,1.19l-0.07,1.52l-0.05,1.19l-0.07,1.52l-0.05,1.19l0,0.1l0,0l0,0
		l0,0l0,0l0,0l0,0v1.42v1.19v1.52v1.19v1.52v1.19v1.52v1.19v1.53v1.19v1.52v1.19v1.52v1.19v1.52v1.19v1.52v1.19v1.52v1.19v1.52v1.19
		v1.52v6.8v0.13h33.66v-0.13h5.24L369.54,351.56z M331.52,321.74L331.52,321.74l-0.02,0.08L331.52,321.74z"/>
	<polygon class="st10" points="125.19,282.57 57.62,282.57 57.62,282.57 57.62,282.57 57.62,286.12 57.62,288.25 57.62,288.34 
		57.62,289.99 57.62,290.88 57.62,292.53 57.62,293.42 57.62,295.07 57.62,295.96 57.62,297.61 57.62,298.49 57.62,300.15 
		57.62,301.03 57.62,302.68 57.62,302.78 57.62,306.57 57.62,306.66 57.62,308.32 57.62,309.2 57.62,310.85 57.62,311.74 
		57.62,313.39 57.62,314.28 57.62,315.93 57.62,316.82 57.62,318.47 57.62,319.35 57.62,321 57.62,321.1 57.62,324.89 57.62,324.99 
		57.62,326.64 57.62,327.52 57.62,329.17 57.62,330.06 57.62,331.71 57.62,332.6 57.62,334.25 57.62,335.14 57.62,336.79 
		57.62,337.67 57.62,339.33 57.62,339.42 57.62,343.21 57.62,343.31 57.62,344.96 57.62,345.84 57.62,347.5 57.62,348.38 
		57.62,350.03 57.62,350.92 57.62,352.57 57.62,353.46 57.62,355.11 57.62,356 57.62,357.65 57.62,360.01 129.93,360.01 
		129.93,360.01 129.93,357.65 129.93,357.65 129.93,356 129.93,356 129.93,355.11 129.93,355.11 129.93,353.46 129.93,353.46 
		129.93,352.57 129.93,352.57 129.93,350.92 129.93,350.92 129.93,350.03 129.93,350.03 129.93,348.38 129.93,348.38 129.93,347.5 
		129.93,347.5 129.93,345.84 129.93,345.84 129.93,344.96 129.93,344.96 129.93,343.31 129.93,343.31 129.93,343.21 129.93,343.21 
		129.93,339.42 129.93,339.42 129.93,339.33 129.93,339.33 129.93,337.67 129.93,337.67 129.93,336.79 129.93,336.79 129.93,335.14 
		129.93,335.14 129.93,334.25 129.93,334.25 129.93,332.6 129.93,332.6 129.93,331.71 129.93,331.71 129.93,330.06 129.93,330.06 
		129.93,329.17 129.93,329.17 129.93,327.52 129.93,327.52 129.93,326.64 129.93,326.64 129.93,324.99 129.93,324.99 129.93,324.89 
		129.93,324.89 129.93,321.1 129.93,321.1 129.93,321 129.93,321 129.93,319.35 129.93,319.35 129.93,318.47 129.93,318.47 
		129.93,316.82 129.93,316.82 129.93,315.93 129.93,315.93 129.93,314.28 129.93,314.28 129.93,313.39 129.93,313.39 129.93,311.74 
		129.93,311.74 129.93,310.85 129.93,310.85 129.93,309.2 129.93,309.2 129.93,308.32 129.93,308.32 129.93,306.66 129.93,306.66 
		129.93,306.57 129.93,306.57 129.93,302.78 129.93,302.78 129.93,302.68 129.93,302.68 129.93,301.03 129.93,301.03 129.93,300.15 
		129.93,300.15 129.93,298.49 129.93,298.49 129.93,297.61 129.93,297.61 129.93,295.96 129.93,295.96 129.93,295.07 129.93,295.07 
		129.93,293.42 129.93,293.42 129.93,292.53 129.93,292.53 129.93,290.88 129.93,290.88 129.93,289.99 129.93,289.99 129.93,288.34 
		129.93,288.34 129.93,288.25 129.93,288.25 129.93,286.12 129.93,286.12 129.93,282.57 129.93,282.57 	"/>
	<polygon class="st10" points="673.09,282.9 673.09,282.9 673.09,282.9 665.04,282.9 665.04,245.72 665.04,244.46 643.7,244.46 
		643.7,245.72 643.7,245.74 643.7,245.74 643.7,253.64 643.7,253.64 643.7,260.73 643.7,260.73 643.7,260.73 643.7,260.73 
		643.7,260.73 635.64,260.73 635.64,260.73 635.64,260.73 635.64,360.01 635.64,360.01 635.64,360.01 637.32,360.01 643.7,360.01 
		665.03,360.01 665.04,360.01 665.04,360.01 665.04,360.01 665.04,360.01 665.18,360.01 665.8,360.01 671.41,360.01 673.09,360.01 
		673.09,360.01 673.09,360.01 	"/>
	<polygon class="st10" points="737.53,268.77 737.53,269.98 737.53,269.98 737.53,271.36 737.53,271.36 737.53,273.01 
		737.53,274.03 737.53,275.68 737.53,276.7 737.53,278.35 737.53,279.37 737.53,279.37 737.53,281.02 737.53,282.04 737.53,282.04 
		737.53,283.68 737.53,284.7 737.53,284.7 737.53,286.35 737.53,286.35 737.53,287.37 737.53,287.37 737.53,289.02 737.53,289.02 
		737.53,290.04 737.53,290.04 737.53,291.69 737.53,291.69 737.53,292.95 737.53,292.95 737.53,294.14 737.53,294.14 737.53,295.79 
		737.53,295.79 737.53,296.81 737.53,296.81 737.53,298.46 737.53,298.46 737.53,299.48 737.53,299.48 737.53,301.12 737.53,301.12 
		737.53,302.14 737.53,302.14 737.53,303.79 737.53,303.79 737.53,304.81 737.53,304.81 737.53,306.46 737.53,306.46 737.53,307.48 
		737.53,307.48 737.53,309.13 737.53,309.13 737.53,310.15 737.53,310.15 737.53,311.8 737.53,311.8 737.53,312.82 737.53,312.82 
		737.53,314.46 737.53,314.46 737.53,315.48 737.53,315.48 737.53,317.13 737.53,317.13 737.53,318.15 737.53,318.15 737.53,319.8 
		737.53,319.8 737.53,320.82 737.53,320.82 737.53,322.47 737.53,322.47 737.53,323.49 737.53,323.49 737.53,325.14 737.53,325.14 
		737.53,326.16 737.53,326.16 737.53,327.8 737.53,327.8 737.53,328.82 737.53,328.82 737.53,330.47 737.53,330.47 737.53,331.49 
		737.53,331.49 737.53,333.14 737.53,333.14 737.53,334.16 737.53,334.16 737.53,335.81 737.53,335.81 737.53,336.83 737.53,336.83 
		737.53,338.48 737.53,338.48 737.53,339.5 737.53,339.5 737.53,341.14 737.53,341.14 737.53,342.16 737.53,342.16 737.53,343.81 
		737.53,343.81 737.53,344.83 737.53,344.83 737.53,346.48 737.53,346.48 737.53,347.5 737.53,347.5 737.53,349.15 737.53,349.15 
		737.53,350.17 737.53,350.17 737.53,351.82 737.53,351.82 737.53,352.84 737.53,352.84 737.53,354.48 737.53,354.48 737.53,355.5 
		737.53,355.5 737.53,357.15 737.53,360.01 768.74,360.01 768.74,360.01 771.77,360.01 771.77,360.01 771.77,269.98 771.77,268.77 	
		"/>
	<polygon class="st10" points="70.44,215.59 70.44,215.59 70.44,214.44 69.58,214.44 65.86,214.44 65.86,214.44 46.05,214.44 
		46.05,215.59 46.05,279.69 46.05,360.01 46.05,360.01 65.86,360.01 65.86,360.01 70.44,360.01 70.44,360.01 70.44,215.59 	"/>
	<path class="st10" d="M775.62,337.95l-0.16-3.46l-0.06-1.25l-0.01-0.13l-0.03-0.66L775.3,331l0-0.03l-0.04-0.91l-0.02-0.44
		l-0.07-1.48l-0.03-0.61l0-0.02l-0.05-1.14l-0.01-0.24l-0.2-4.34l-0.01-0.11l-0.05-1.15l-0.06-1.38l-0.01-0.2l-0.01-0.33l-0.01-0.28
		l-0.06-1.3l-0.03-0.69l-0.03-0.69l-0.1-2.11l-0.03-0.69l-0.03-0.69l-0.04-0.97l-0.1-2.11l-0.05-0.98l-0.03-0.59l-0.04-0.96
		l-0.03-0.65l-0.02-0.4l-0.02-0.33l-0.03-0.65l-0.07-1.46l-0.01-0.28l-0.05-1.1l-0.08-1.64l-0.02-0.48v-0.02l-0.05-1.03l-0.01-0.24
		l0-0.08l-0.08-1.82l-0.01-0.3l-0.04-0.96l-0.02-0.42l-0.07-1.5l-0.03-0.61l-0.03-0.65l-0.03-0.73l-0.05-1.19l-0.04-0.92l0-0.07
		l-0.05-0.99l-0.01-0.31l-0.02-0.42l-0.08-1.69l0-0.01v0l-0.06-1.36l-0.01-0.2l-0.09-1.92l-0.06-1.38l-0.02-0.38l-0.14-3.04
		l-0.06-1.17l-0.02-0.42l-0.19-4.09l-0.03-0.52l-0.04-0.86l-0.13-2.84l-0.04-0.88l-0.09-1.88l-0.03-0.54l-0.04-0.84l-0.05-1.02
		l-0.04-0.82l-0.01-0.27l-0.03-0.56l-0.01-0.13l-0.02-0.4l-0.01-0.29l-0.07-1.53l-0.05-1.05l-0.14-3.03l0-0.09l-0.06-1.29l-0.02-0.5
		l-0.08-1.61l-0.05-1.18l-0.01-0.2l-0.03-0.58l-0.01-0.22l-0.12-2.65l-0.01-0.31l-0.01-0.2l-0.08-1.65l-0.06-1.38l-0.1-2.11
		l-0.06-1.38l-0.1-2.11l-0.03-0.69l-0.03-0.69l-0.32-6.85l0-0.07l-0.01-0.15l-0.12-2.58l-0.02-0.44v0l-0.05-1.1l-0.06-1.2
		l-0.04-0.87l-0.13-2.8l-0.06-1.38l-0.04-0.91l-0.06-1.2l0-0.02l-0.02-0.46l-0.04-0.91l-0.03-0.6l-0.06-1.26l-0.01-0.23l0-0.03
		l-0.02-0.42l-0.04-0.96l-0.04-0.88l-0.08-1.78h0v0H765c-0.26-2.1-5.28-3.8-11.71-4.06l-1.33-38.42l0,0h-0.77l-1.33,38.42
		c-6.44,0.26-11.45,1.97-11.72,4.06h-4.63l-0.09,1.9l-0.03,0.76l-0.06,1.38l-0.01,0.24l0,0.01l0,0.04l-0.08,1.81l-0.06,1.38
		l-0.08,1.64l-0.02,0.47l-0.03,0.72l-0.03,0.66l-0.05,1.05l-0.05,1.06l0,0.11l-0.06,1.27l-0.03,0.66l-0.07,1.45l-0.02,0.37l-0.05,1
		l-0.01,0.25l-0.09,1.86l0,0.06l-0.06,1.26l0,0.06l-0.05,1.19l-0.03,0.72l-0.01,0.2l-0.05,1l-0.02,0.38l-0.07,1.54l-0.03,0.57
		l-0.03,0.68l-0.03,0.7l-0.06,1.22l-0.01,0.21l-0.03,0.67l-0.04,0.86l-0.03,0.52l-0.04,0.91l-0.01,0.21l-0.05,0.99l-0.01,0.22
		l-0.05,1.16l-0.03,0.59l-0.01,0.17l-0.06,1.35l-0.06,1.38l-0.1,2.11l-0.06,1.38l-0.1,2.11l-0.06,1.38l-0.04,0.84l0,0.06l-0.06,1.21
		l-0.03,0.71l-0.02,0.36l-0.01,0.31l-0.08,1.74l-0.02,0.37l0,0.04l-0.06,1.34l-0.01,0.19l0,0.08l-0.09,1.84l0,0.08l-0.01,0.27
		l-0.05,1.03l0,0.03l-0.09,1.85l-0.01,0.23l-0.05,1.02l-0.02,0.36l-0.04,0.82l-0.04,0.92l-0.02,0.37l-0.03,0.7l-0.03,0.68
		l-0.02,0.41l-0.08,1.7h-0.04l-0.03,1.35l0,0.03l-0.04,0.93l-0.02,0.41l-0.04,0.77l-0.03,0.71l-0.03,0.67l-0.03,0.62l-0.01,0.26
		l-0.06,1.24l-0.03,0.64l-0.04,0.74l-0.01,0.3l-0.02,0.45l-0.06,1.36l-0.06,1.38l-0.1,2.11l-0.07,1.38l-0.03,0.71l-0.01,0.22
		l-0.03,0.58l-0.03,0.61l-0.06,1.38l-0.02,0.37l-0.01,0.24l-0.07,1.5l-0.02,0.42l-0.02,0.51l-0.02,0.45l-0.08,1.82l-0.01,0.3l0,0.01
		l-0.05,1l-0.02,0.34v0.01l0,0.01l-0.04,0.86l-0.05,1.04l-0.01,0.21l-0.02,0.38l-0.05,0.99l-0.01,0.14l-0.07,1.44l-0.02,0.53
		l-0.03,0.73l-0.03,0.65l-0.02,0.52l-0.05,1.05l-0.03,0.54h-0.04l-0.02,1.36l0,0.02l-0.05,0.95l-0.05,1.16l0,0.1l-0.06,1.28
		l-0.03,0.64l-0.03,0.56l-0.04,0.91l-0.03,0.71l-0.03,0.67l-0.01,0.32l-0.08,1.79l-0.03,0.72l-0.03,0.66v0.01l-0.03,0.63l-0.07,1.47
		l-0.06,1.38l-0.1,2.11L728,327.5l-0.02,0.51l-0.01,0.12l-0.02,0.48l-0.05,1l-0.06,1.38l-0.1,2.11l0,0.02l-0.01,0.11l-0.03,0.67
		l-0.03,0.58l-0.16,3.46h0v0h0v22.06h48.1l0,0L775.62,337.95L775.62,337.95z"/>
	<polygon class="st10" points="417.7,285.17 417.7,285.17 415.18,285.17 412.17,286.61 396.88,293.93 396.88,293.93 395.51,294.59 
		393.32,295.63 389.73,295.63 389.73,295.63 389.73,300.68 389.73,302.2 389.73,302.2 389.73,302.99 389.73,304.3 389.73,304.3 
		389.73,305.09 389.73,305.09 389.73,306.4 389.73,306.4 389.73,307.19 389.73,308.5 389.73,308.5 389.73,309.29 389.73,310.6 
		389.73,310.6 389.73,311.39 389.73,311.39 389.73,312.7 389.73,312.7 389.73,313.49 389.73,313.49 389.73,314.8 389.73,315.59 
		389.73,315.59 389.73,316.9 389.73,316.9 389.73,317.69 389.73,319 389.73,319.79 389.73,321.1 389.73,321.88 389.73,321.88 
		389.73,323.2 389.73,323.98 389.73,323.98 389.73,325.3 389.73,325.3 389.73,326.08 389.73,326.08 389.73,327.4 389.73,327.4 
		389.73,328.18 389.73,329.5 389.73,329.5 389.73,330.28 389.73,331.6 389.73,331.6 389.73,332.38 389.73,332.38 389.73,333.7 
		389.73,333.7 389.73,334.48 389.73,334.48 389.73,335.8 389.73,335.8 389.73,336.58 389.73,336.58 389.73,337.9 389.73,337.9 
		389.73,338.68 389.73,340 389.73,340 389.73,340.78 389.73,340.78 389.73,342.1 389.73,342.1 389.73,342.88 389.73,344.2 
		389.73,344.2 389.73,344.98 389.73,344.98 389.73,346.79 389.73,349.72 389.73,349.72 389.73,359.95 391.81,359.95 394.71,359.95 
		394.71,359.95 401.12,359.95 401.12,359.95 406.1,359.95 406.1,359.95 412.72,359.95 415.21,359.95 415.21,359.95 417.7,359.95 
		417.7,360.01 431.81,360.01 431.81,285.17 	"/>
	<polygon class="st10" points="321.78,345.73 321.78,340.86 319.49,340.86 319.49,332.94 319.49,332.93 315.95,332.93 
		315.95,274.16 314.49,274.16 314.49,261.55 311.65,261.55 311.65,252.18 311.65,252.18 311.65,252.18 309.14,252.18 309.14,249.83 
		306.41,249.83 306.41,249.83 306.42,249.83 306.42,247.94 304.97,247.94 304.28,243.88 302.21,231.66 302.21,231.66 302.21,231.66 
		302.12,231.66 302.12,230.21 302.12,230.21 302.12,230.21 301.48,230.21 301.48,229.38 301.48,229.38 301.46,229.38 301.17,223.6 
		300.37,207.37 300.37,207.38 300.37,207.37 299.32,228.61 299.28,229.38 299.28,230.21 298.64,230.21 298.64,230.21 298.64,231.66 
		298.64,231.66 298.64,231.66 298.76,231.66 298.27,234.56 296,247.94 294.24,247.94 294.24,249.83 294.24,249.83 294.24,249.83 
		291.56,249.83 291.56,252.18 289.12,252.18 289.12,252.18 289.12,261.55 286.12,261.55 286.12,261.55 286.12,274.16 284.66,274.16 
		284.66,332.93 281.17,332.93 281.17,332.94 281.17,340.86 278.99,340.86 278.99,345.73 273.55,345.73 273.55,360.01 278.99,360.01 
		281.97,360.01 281.97,360.01 283.64,360.01 283.64,360.01 285.11,360.01 285.11,360.01 287.85,360.01 287.85,360.01 289.12,360.01 
		289.36,360.01 289.36,360.01 291.04,360.01 291.04,360.01 293.06,360.01 293.06,360.01 294.73,360.01 294.73,360.01 296.28,360.01 
		296.28,360.01 297.96,360.01 297.96,360.01 299.49,360.01 299.49,360.01 301.17,360.01 301.17,360.01 302.7,360.01 302.7,360.01 
		304.38,360.01 304.38,360.01 305.87,360.01 305.87,360.01 307.55,360.01 307.55,360.01 309.57,360.01 309.57,360.01 311.24,360.01 
		311.24,360.01 311.65,360.01 312.76,360.01 312.76,360.01 315.5,360.01 315.5,360.01 316.96,360.01 316.96,360.01 318.64,360.01 
		318.64,360.01 321.78,360.01 327.06,360.01 327.06,345.73 	"/>
	<polygon class="st10" points="416.36,358.15 416.36,360.01 391.51,360.01 391.51,359.97 395.31,358.15 	"/>
	<polygon class="st10" points="624.1,337.34 624.1,307.74 624.1,307.74 624.1,304.43 622.7,304.43 622.7,304.43 622.7,304.43 
		622.7,301.83 621.86,301.83 621.86,300.98 604.77,295.8 581.83,300.98 581.83,301.83 580.89,301.83 580.89,304.43 578.58,304.43 
		578.58,307.74 578.58,311.44 578.58,337.35 574.77,337.35 574.77,337.35 574.77,360.01 612.45,360.01 612.45,360.01 612.45,360.01 
		627.61,360.01 627.61,360.01 627.61,360.01 627.61,356.78 627.61,349.82 627.61,349.69 627.61,349.69 627.61,342.87 627.61,337.34 
			"/>
	<path class="st10" d="M729.44,331.02h-4.25v-29.06h-2.84v-2.44h-6.97c-1.86-4.13-8.9-7.2-17.31-7.2s-15.44,3.07-17.31,7.2h-7.02
		v2.44h-3.1v4.32v3.89v45.41h-2.29v4.38l0,0v0h5.82h6.4h6.92v0.06l0,0v0h28.17v-0.18h13.78V331.02z"/>
	<polygon class="st10" points="44.15,337.08 44.15,336.88 44.15,330.02 42.95,330.02 42.95,325.12 42.96,325.12 42.95,325.1 
		42.95,325.06 42.95,324.48 42.81,324.26 42.72,324.09 40.2,313.44 39.75,311.51 39.75,310.27 39.45,310.27 37.52,302.07 
		37.52,300.01 36.55,300.01 36.55,300.01 36.55,300.01 36.55,302.06 36.04,304.2 34.61,310.27 34.28,310.27 34.28,311.57 
		34.3,311.57 31.34,324.11 31.14,324.45 31.13,324.47 31.13,324.47 31.13,324.47 31.13,324.47 31.13,325 31.1,325.12 31.1,325.12 
		31.1,325.12 31.13,325.12 31.13,330.02 29.92,330.02 29.92,330.03 29.91,330.03 29.91,336.2 27.12,333.62 23.49,330.27 
		23.49,328.07 24.76,328.07 24.76,328.07 24.76,328.07 24.76,327.48 24.76,327.48 24.76,327.48 23.49,327.48 23.49,326.79 
		22.49,326.79 22.49,326.79 22.48,326.79 22.48,327.48 21.21,327.48 21.21,328.07 22.48,328.07 22.48,330.27 15.89,336.36 
		15.89,330.02 14.67,330.02 14.67,325.12 14.7,325.12 14.67,324.99 14.67,324.47 14.67,324.47 14.54,324.25 14.46,324.11 
		11.5,311.57 11.51,311.57 11.51,311.57 11.51,311.57 11.51,310.27 11.51,310.27 11.51,310.27 11.19,310.27 9.25,302.07 
		9.25,300.01 8.28,300.01 8.28,300.01 8.28,300.01 8.28,302.06 7.84,303.93 6.34,310.27 6.06,310.27 6.06,310.27 6.05,310.27 
		6.05,311.51 3.43,322.61 3.08,324.09 3.08,324.09 3.08,324.09 2.93,324.35 2.85,324.49 2.85,325.07 2.84,325.12 2.84,325.12 
		2.84,325.12 2.85,325.12 2.85,330.02 1.65,330.02 1.65,330.03 1.65,330.03 1.65,337.08 0.5,337.08 0.5,360.01 1.65,360.01 
		2.85,360.01 3.35,360.01 3.73,360.01 4.63,360.01 4.81,360.01 6.59,360.01 10.95,360.01 12.72,360.01 12.82,360.01 13.1,360.01 
		14.67,360.01 15.93,360.01 17.73,360.01 20.38,360.01 25.37,360.01 28.02,360.01 29.82,360.01 31.13,360.01 31.74,360.01 
		32.97,360.01 33.09,360.01 34.85,360.01 39.21,360.01 41,360.01 41.17,360.01 42.06,360.01 42.45,360.01 42.95,360.01 
		44.15,360.01 45.3,360.01 45.3,337.08 	"/>
	<polygon class="st10" points="228.39,273.29 228.39,273.18 227.46,273.18 226.78,264.75 226.64,264.75 226.64,264.75 
		222.92,264.75 222.92,264.73 210.5,264.73 210,238.16 209.1,238.16 208.59,264.73 196.18,264.73 196.18,273.18 190.97,273.18 
		190.95,273.19 189.99,273.19 189.47,264.73 189.37,264.73 189.37,264.73 186.55,264.73 185.92,273.19 184.6,273.19 184.6,360.01 
		190.95,360.01 190.95,360.01 196.16,360.01 196.16,360 196.18,360 196.18,360 222.92,360 228.39,360 228.39,359.87 228.39,273.3 
		228.39,273.29 	"/>
	<polygon class="st10" points="811.98,321.44 811.98,299.95 811.35,298.65 810.66,297.22 810.66,297.22 810.66,297.22 
		809.42,299.78 809.34,299.95 809.34,299.95 809.34,299.95 809.34,284.14 808.03,281.41 808.03,281.42 808.02,281.41 807.73,282.02 
		807.2,283.12 800.94,272.05 800.94,272.05 800.93,272.05 798.33,276.66 794.68,283.11 793.86,281.41 793.86,281.42 793.86,281.41 
		792.54,284.14 792.54,299.95 792.54,299.95 792.54,299.95 792.54,299.95 791.22,297.22 791.22,297.22 791.22,297.22 790.27,299.2 
		789.9,299.95 789.9,299.95 789.9,299.95 789.9,300.19 789.9,300.19 789.9,301.08 789.9,301.08 789.9,321.44 782.51,321.44 
		782.51,321.44 782.51,321.44 782.51,325.96 782.51,325.96 782.51,360.01 789.9,360.01 790.91,360.01 791.69,360.01 792.54,360.01 
		793.71,360.01 796.73,360.01 798.56,360.01 803.27,360.01 805.11,360.01 808.13,360.01 809.34,360.01 809.91,360.01 810.57,360.01 
		811.04,360.01 811.98,360.01 819.38,360.01 819.38,325.96 819.38,321.44 	"/>
	<path class="st10" d="M177.94,331.02v-12.14h-3.28v-5.46l0,0h-4.15v-37.35h-1.45v-10.31h0h-2.81v-1.23v-2.97l0,0h-1.68
		c-0.04-0.03-0.07-0.06-0.11-0.08v-3.61v-2.8h-1.85v-5.54h-1.15c0,0,0,0-0.01-0.01v-2.25c0-0.06,0-0.12-0.01-0.17
		c0-0.02,0-0.03-0.01-0.05c0-0.04-0.01-0.08-0.01-0.12c0-0.02-0.01-0.04-0.01-0.06c-0.01-0.04-0.02-0.08-0.02-0.12
		c0-0.02-0.01-0.03-0.01-0.05c-0.01-0.04-0.02-0.09-0.04-0.13c0-0.01-0.01-0.02-0.01-0.03c-0.23-0.69-0.78-1.29-1.54-1.71v-2.25
		h0.08l0,0l0,0l-2.21-15.46v-3l0,0h-0.93v3.54l-1.51,10.56l-0.55,3.89c-0.04,0.15-0.07,0.31-0.07,0.47l0,0v2.25
		c-0.75,0.42-1.3,1.02-1.54,1.71c0,0.01-0.01,0.02-0.01,0.03c-0.01,0.04-0.03,0.09-0.04,0.13c0,0.02-0.01,0.03-0.01,0.05
		c-0.01,0.04-0.02,0.08-0.02,0.12c0,0.02-0.01,0.04-0.01,0.06c-0.01,0.04-0.01,0.08-0.01,0.12c0,0.02,0,0.03-0.01,0.05
		c0,0.06-0.01,0.12-0.01,0.17v0l0,0v2.25c0,0,0,0-0.01,0.01h-1.13v2.14v3.4H150v0v2.31c-0.02,0.11-0.04,0.22-0.05,0.33
		c0,0.05-0.01,0.11-0.01,0.16v3.61c-0.04,0.03-0.07,0.06-0.11,0.08h-1.82l0,0v4.2h-2.67l0,0v10.31h-1.45v0l0,0v37.35h-4.15l0,0h0
		v5.46h-3.28l0,0h0v12.14h-6.54v23.88v2.07v2.7h54.55v-2.7v-2.07v-23.88H177.94z"/>
	<polygon class="st10" points="657.83,332.16 657.83,332.16 657.83,332.16 651.62,332.16 651.62,329.49 642.79,329.49 
		620.04,329.49 620.04,329.49 620.04,332.16 613.46,332.16 613.46,332.16 613.46,332.16 613.46,360.01 613.46,360.01 613.46,360.01 
		647.64,360.01 657.83,360.01 657.83,360.01 657.83,360.01 	"/>
	<polygon class="st10" points="802.63,340.66 802.63,340.66 784.16,340.66 773.85,340.66 773.85,340.66 773.85,344.53 
		737.97,344.53 729.44,344.53 729.44,360.01 729.44,360.01 729.44,360.01 737.97,360.01 802.63,360.01 802.63,360.01 802.63,360.01 
		802.63,356.14 802.63,344.53 802.63,340.66 	"/>
	<rect x="548.4" y="354.14" class="st10" width="23.06" height="5.87"/>
	<rect x="548.41" y="358.3" class="st10" width="26.36" height="1.71"/>
	<rect x="552.13" y="355.83" class="st10" width="1.65" height="2.36"/>
	<rect x="556.03" y="355.83" class="st10" width="1.65" height="2.36"/>
	<rect x="559.93" y="355.83" class="st10" width="1.65" height="2.36"/>
	<rect x="563.84" y="355.83" class="st10" width="1.65" height="2.36"/>
	<polygon class="st10" points="586.08,356.84 586.08,360.01 537.09,360.01 537.09,349.11 579.95,349.11 579.95,356.84 	"/>
	<rect x="159.56" y="352.45" class="st10" width="14.48" height="7.54"/>
	<rect x="159.56" y="358.02" class="st10" width="34.28" height="1.99"/>
	<polygon class="st10" points="55.59,358.02 55.59,352.45 41.11,352.45 41.11,358.02 41.11,359.99 41.11,360.01 75.38,360.01 
		75.38,358.02 	"/>
	<rect x="17.87" y="359.35" class="st10" width="75.9" height="0.66"/>
	<rect x="62.64" y="359.35" class="st10" width="31.14" height="0.66"/>
	<rect x="574.77" y="359.35" class="st10" width="38.69" height="0.66"/>
	<rect x="574.77" y="359.35" class="st10" width="38.69" height="0.66"/>
	<rect x="373.37" y="359.35" class="st10" width="61.73" height="0.66"/>
	<rect x="373.37" y="359.35" class="st10" width="61.73" height="0.66"/>
	
		<rect x="657.83" y="359.35" transform="matrix(-1 -1.224647e-16 1.224647e-16 -1 1350.9395 719.3583)" class="st10" width="35.29" height="0.66"/>
	
		<rect x="657.83" y="359.35" transform="matrix(-1 -1.224647e-16 1.224647e-16 -1 1350.9395 719.3583)" class="st10" width="35.29" height="0.66"/>
	<rect x="766.31" y="359.35" class="st10" width="30.96" height="0.66"/>
	<rect x="766.31" y="359.35" class="st10" width="30.96" height="0.66"/>
	<polygon class="st10" points="531.62,346.5 531.61,346.5 531.62,346.5 531.59,346.5 530.3,346.11 530.3,344.9 526.19,344.9 
		521.76,343.58 517.33,344.9 513.21,344.9 513.21,344.9 475.29,344.9 475.29,341.95 466.61,341.95 466.61,339.69 466.38,339.69 
		462.27,339.69 461.73,339.69 442.78,335.56 423.82,339.69 423.28,339.69 419.18,339.69 418.94,339.69 418.94,341.96 410.27,341.96 
		410.27,344.9 372.34,344.9 372.34,344.9 368.22,344.9 363.8,343.59 359.37,344.9 355.26,344.9 355.26,346.12 353.96,346.5 
		353.94,346.5 353.94,346.51 353.94,346.51 353.95,346.51 354.94,347.59 354.92,347.59 354.92,348.68 355.26,348.68 355.26,357.98 
		355.26,360.01 359.6,360.01 368,360.01 372.34,360.01 410.27,360.01 410.27,360.01 416.99,360.01 418.94,360.01 423.28,360.01 
		462.27,360.01 466.61,360.01 468.55,360.01 468.55,360.01 513.21,360.01 517.56,360.01 525.96,360.01 530.3,360.01 530.3,357.5 
		530.3,348.68 530.64,348.68 530.64,347.59 530.62,347.59 531.61,346.5 	"/>
	<rect x="335.37" y="359.35" class="st10" width="93" height="0.66"/>
	<rect x="335.37" y="359.35" class="st10" width="93" height="0.66"/>
	<rect x="17.87" y="359.35" class="st10" width="779.4" height="0.66"/>
	<polygon class="st10" points="277.14,346.63 239.15,346.63 239.15,360.01 277.14,360.01 281.06,360.01 281.06,346.63 	"/>
	<polygon class="st10" points="277.09,323.99 277.09,322.1 277.09,322.1 277.09,322.1 269.39,322.1 262.8,322.1 262.8,323.99 
		254.92,323.99 254.92,326.02 228.39,326.02 228.39,326.02 228.39,360.01 228.39,360.01 264.91,360.01 264.91,326.02 264.91,324.06 
		264.91,324.06 264.91,326.02 264.91,360.01 264.91,360.01 264.91,360.01 277.09,360.01 277.09,360.01 277.09,326.02 277.09,326.02 
		277.09,323.99 277.09,323.99 	"/>
	<rect x="343.95" y="344.9" class="st10" width="22.34" height="15.05"/>
</g>
<g>
	<defs>
		<rect id="SVGID_35_" x="355.91" width="279.15" height="360.01"/>
	</defs>
	<clipPath id="SVGID_9_">
		<use xlink:href="#SVGID_35_"  style="overflow:visible;"/>
	</clipPath>
	<g class="st4">
		<g>
			<path class="st10" d="M462.82,480.88c0,0,4.71-12.31,1.54-24.7c-3.17-12.39-4.8-53.99,2.37-92.73c0,0-21.58-10.65-5.96-42.4
				c0,0-21.32-2.01,3.75-47.8l-1.59-4.44c0,0-4.1-4.09-5.3-6.35c0,0,0.92-8.52,3.34-11.07c0,0-5.74,3.45-3.93-13.51
				c0,0-3.69,2.55-4.72-1.35c-1.02-3.9,2.45-7.96,2.45-7.96s-22.34,1.6-0.37-37.36c0,0-9.6-27.5-6.58-48.52c0,0,1.47-2.33-1.4-4.36
				c-2.87-2.03-2.45-14.71-2.04-18.32c0,0-1.8-4.11-1.95-5.91c-0.15-1.8-2.01-9.08,1.39-14.13c0,0,1.62-1.16,4,0
				c0,0,0.57,0.09,1.25-0.86c0.68-0.96,10.46,4.17,11.14,14.53c0,0-0.04,19.14,1.89,27.14c1.93,7.99,7.32,25.19,7.17,38.55
				c0,0,5.21,2.78,5.74,6.46c0,0,2.94,8.37,2.15,13.66c0,0,1.77,6.46,5.1,5.33c3.32-1.13,4.98-10.66,3.93-16.82
				c-1.06-6.16-2.57-21.06,14.08-21.96c16.65-0.9,21.63,10.58,21.97,15.76c0.34,5.18-1.02,12.72-0.57,15.76
				c0.45,3.04,0.45,9.23,2.27,12.27c1.81,3.04-1.13,3.72-1.59,4.05s1.89,12.31,4.83,14.49s2.36,1.22,2.42,3.75
				c0.06,2.53,9.74,1.01,12.46,14.19c2.72,13.17,4.3,21.17,14.38,25.9l6.12-13.63l21.86,11.82l-5.66,13.06c0,0,3.96,4.5,0.91,9.91
				c-3.06,5.4-4.76,11.49-4.64,12.95c0.11,1.46-4.42,5.52-6.68,4.5c0,0,2.72,26.69-11.33,32.77c0,0-3.02,7.28-9.51,4.05l4.68,50.45
				c0,0,1.36,5.25-2.42,7.06l0.23,11.04c0,0-0.15,3.38-4.68,2.55l0.83,28c0,0,0.15,9.01-5.44,13.36c0,0,0.93,17.35,2.29,20.66
				L462.82,480.88z"/>
			<path class="st10" d="M498.29,166.18v-20.79l5.03,20.58C503.32,165.97,500.51,171.13,498.29,166.18z"/>
			<path class="st10" d="M510.07,167.15l14.32-14.21l-9.94,16.29C514.45,169.22,509.46,172.13,510.07,167.15z"/>
			<path class="st10" d="M518.92,173.4l19.63-5.07l-17.26,9.36C521.29,177.69,515.48,178.77,518.92,173.4z"/>
			<path class="st10" d="M522.19,181.22l22.36,2.23l-22.34,2.91C522.21,186.36,516.7,182.93,522.19,181.22z"/>
			<path class="st10" d="M473.72,155.45l14.83,15.8c0,0,3.44,1.17,3.25-2.92L473.72,155.45z"/>
			<polygon class="st10" points="468.44,176.58 485.63,180.2 486.29,175.95 468.44,175.95 			"/>
			<path class="st10" d="M485.63,183.21l-12.21,2.26v2.31l12.87-0.28C486.29,187.5,489.41,184.33,485.63,183.21z"/>
			<path class="st17" d="M452.59,100.47c0,0-2.14,1.94-3.69,2.41c-2.99,0.91-1.08-0.78-1.31-0.05c-0.23,0.73-3.51,2.08-4.13,2.7
				c-0.62,0.62,7.48,0.23,7.19,4.34c0,0-2.52,0.62-1.43,3.77c0,0-8.65-0.06-3.72,2.14c4.93,2.2,6.1,3.42,5.42,10.02
				c-0.68,6.61-0.23,12.09-0.23,12.09s-2.11,0.64,0,2.51c2.11,1.88,9.82,17.06,10.72,21.1c0.91,4.05,2.87,35.09,2.87,35.69
				c0,0,4.76-9.08,5.59-9.08s6.27,1.2-7.32,18.77c-13.59,17.57-11.44,9.91-10.08,5.52c1.36-4.39,4.76-9.68,4.19-11.94
				c-0.57-2.25-1.7-7.66-1.7-7.66s-7.02,15.09-5.78,15.54c1.25,0.45,4.87-3.94,3.74-0.56c-1.13,3.38-6.91,18.47-0.57,14.41
				c6.34-4.05,15.86-22.86,17.78-23.98c1.93-1.13-2.38,8.78-5.78,13.06c-3.4,4.28-14.36,23.45-19.24,10.88c0,0-4.99-13.1,9.05-30.96
				c0,0-9.58-29.88-6.34-48.5c0,0,1.18-1.89-0.56-3.59c-1.73-1.71-4.04-1.88-2.91-18.81c1.13-16.93,0.03-0.27,0.03-0.27
				s-2.22-2.54-2.79-6.71s-2.31-16.34,6.23-13.34c0,0,0.83-0.16,1.11-0.7L452.59,100.47z"/>
			<path class="st17" d="M457.62,262.46c0,0,17.84-38.24,19.76-40.83c0,0-6.57,5.63-8.61,11.6c0,0-1.27-8.67-0.68-9.57
				c0,0-5.55,5.07-4.3,17.34c0,0-3.67,8.46-5.1,8.22c-1.43-0.24,3.51-23.98,3.96-25.22c0,0-5.45,11.68-5.67,14.28
				c-0.22,2.6-3.06,14.32,2.49,13.42C459.49,251.69,456.24,260.59,457.62,262.46z"/>
			<path class="st17" d="M492.15,168.12c0,0,1.2,1.73,3.64,1.25c2.76-0.54,3.08-1.49,2.5-3.19
				C498.29,166.18,494.06,166.82,492.15,168.12z"/>
			<path class="st17" d="M503.61,165.98c0,0,3.11,5.08,7.7,1.59C511.31,167.57,505.26,165.58,503.61,165.98z"/>
			<path class="st17" d="M514.12,169.04c0,0,1.48,5.22,4.8,4.36C518.92,173.4,516.01,169.79,514.12,169.04z"/>
			<path class="st17" d="M520.99,177.09c0,0-1.44,2.86,1.01,3.01C522,180.09,521.79,178.44,520.99,177.09z"/>
			<path class="st17" d="M498.79,181.22c0,0,1.98-2.33,3.4-1.94c1.42,0.39,8.83,7.31,10.7,6.22c1.87-1.09,4.7-7.64-7.42-9.55
				c-12.12-1.91-14.84,4.38-15.12,7.26S492.79,187.32,498.79,181.22z"/>
			<path class="st17" d="M494.72,187.79c0,0,7.44-3.38,7.74-5.24c0,0,0.7-0.9,1.43,0.28c0.74,1.18,4.13,3.88,5.72,4.5
				c1.59,0.62-3.11,1.07-5.27,0.96c-2.15-0.11-2.1,8.05-2.38,9.57c0,0-4.64,1.35-2.44,1.86c2.21,0.51,2.66,1.07-0.45,2.98
				c0,0-1.08,1.01-0.59,1.5c0.49,0.49,0.91-1.61,2.45-1.46c1.55,0.15,2.94,1.16,2.61,1.54c-0.34,0.38-3.96-0.52-3.51,0.98
				c0.45,1.5,3.62-0.53,4.53,0.86c0.91,1.39-0.34,4.35-9.4,3.79l-1.93-0.17c0,0-2.23-16.61,1.89-16.57c4.12,0.04,5.02-1.91,2.98-4.2
				C496.07,186.68,494.38,190.47,494.72,187.79z"/>
			<path class="st17" d="M515.61,222.41c0,0-3.42-6.91,0.79-7.54c3.35-0.51,2.89,6.64,3.85,8.61
				C521.22,225.45,520.26,230.69,515.61,222.41z"/>
			<path class="st17" d="M493.24,209.74c0,0-0.72,6.44-1.02,7.41c-0.3,0.98,5.44,12.01,15.93,14.19l0.38-2.03
				c0,0-0.91-0.56-1.36-2.38c-0.45-1.82,0.08-2.87-0.08-3.62c-0.15-0.75-12.01-10.77-12.61-13.57
				C494.49,209.74,493.4,208.38,493.24,209.74z"/>
			<path class="st17" d="M492.22,217.16c0,0-2.77,0.81-4.64-0.83c-1.87-1.63-3.34-1.07-5.83,3.21c-2.49,4.28-17.6,39.43-18.82,49.26
				l1.3,4.36c0,0-24.25,40.89-3.61,48.44c0.12,0.04,0.24,0.09,0.36,0.13c21.28,7.21,0.21-2.14,0.21-2.14s-13.59-7.43,1.47-30.63
				c0,0-2.15,11.6-1.25,16.78c0,0,6.89-38.51,53.17-72.07l0.63-4.05c0,0-3.51-1.11-6.68-0.3L492.22,217.16z"/>
			<path class="st17" d="M552.65,269.97l-3.12,55.59l16.23-27.79c0,0,5.59-10.19,7.1-12.82c1.51-2.63,8.97-15.96,8.97-15.96
				l-19.28-10.43l-6.15,13.25L552.65,269.97z"/>
			<path class="st17" d="M478.41,483.54c0,0,6.23-17.45,4.53-25.39c-1.7-7.94-6.57-5.58-6.57-5.58s-1.14-5.41,16.5-13.06
				c17.63-7.66,23.68-12.16,11.44-19.22c-12.23-7.06,22.8-20.08,27.45-23.35l-6-154.91l12.91,20.42c0,0-0.57-23.49-12.23-25.18
				c0,0-1.25,0.62-3.34-2.36c-2.1-2.98-8.1-5.79-10.58-5.81l-2.95,9.42c0,0-36.36,30.97-40.66,51.01c0,0,38.74-41.44,46.32-50
				c7.59-8.56,0-0.6,0-0.6s-52.4,68.45-52.88,147.36c0,0-2.82,47.01,0.84,63.86c0,0,4.57,18.43-0.64,30.81L478.41,483.54z"/>
			<path class="st17" d="M464.32,360.17c0,0-2,0.07-1.09-6.24c0.91-6.31,26.48-78.51,30.13-82.43c0,0,0.68-4.95-12.69,8.11
				c-13.37,13.06-39.69,68.52-16.63,82.6C464.04,362.22,469.19,364.53,464.32,360.17z"/>
			<path class="st10" d="M514.3,270.58c0,0-11.05,130.04-11.81,138.15C502.49,408.73,508.3,280.47,514.3,270.58z"/>
			<path class="st10" d="M512.51,254.99c0,0-28.75,130.62-45.77,138.43C466.73,393.42,491.15,340.44,512.51,254.99z"/>
			<path class="st10" d="M443.29,99.27v-0.45c0-0.73-0.6-1.33-1.34-1.33h-0.03c-0.74,0-1.34-0.59-1.34-1.33v-1.18
				c0-0.64-0.46-1.19-1.09-1.3c-1.56-0.29-4.27-1.18-4.57-3.87c-0.04-0.34-0.23-0.65-0.51-0.86l-0.3-0.23
				c-0.42-0.32-0.61-0.86-0.48-1.38c0.53-2.08,1.96-7.33,2.96-8.05c1.25-0.9,6.12-2.14,8.38-2.36v-0.79h-1.13v-1.37
				c0-0.73,0.6-1.33,1.34-1.33h8.2c0.74,0,1.34,0.59,1.34,1.33v0.16c0,0.73-0.6,1.33-1.34,1.33h-0.02l0.34,0.79
				c0,0,7.93,1.01,9.06,3.49c1.13,2.48,4.66,13.74-6.56,13.4c0,0-1.24,1.35,0,1.58c1.24,0.23,0.1,1.91-1.03,2.14
				c-0.78,0.16-0.63,2.35-0.47,3.69c0.08,0.62-0.3,1.21-0.9,1.41C451.04,103.7,443.66,105.61,443.29,99.27z"/>
			<path class="st17" d="M453.4,73.44c0,0,0.39,1.31-0.89,2.14s-3.81,1.54-1.25,2.36c2.57,0.83,16.57,5.82,0.87,5.67
				c-15.71-0.15-17.2,3.21-18.45,4.46c0,0,1.01-7.78,3.22-8.95c2.21-1.17,8.21-2.02,8.16-2.5c-0.06-0.48-1.19,0.06-1.19-0.73
				s-0.78-2.45,1.34-2.45S453.4,73.44,453.4,73.44z"/>
			<path class="st17" d="M439.77,93.76c0,0-4.24-1.69-2.93-3.83c1.3-2.14,15.23-3.94,18.91-2.7c0,0-11.78-5.86-21.07,1.38
				c0,0-0.72,0.01-0.83-0.17c0,0,0.61,0.89,0.94,0.94C435.14,89.42,433.96,92.97,439.77,93.76z"/>
			<path class="st17" d="M440.69,96.64c0,0,5.33-1.29,7.44-1.4c2.11-0.11,1.83-2.4,0.78-2.36c-1.04,0.04-7.89,0.55-8.9,1.01
				c0,0,0.59,0.65,0.59,0.88C440.59,94.98,440.52,96.33,440.69,96.64z"/>
			<path class="st26" d="M444.19,73.65c0,0-2.26-0.66-2.71-5.73c-0.45-5.07,4.76-11.6,5.78-15.65c0,0,1.96,1.8,2.45,4.05
				c0.49,2.25,4.12-5.52,4.8-6.19c0,0,1.95,4.05,1.71,7.66c0,0,2.82-4.28,7.01-2.93c0,0-3.79,3.94-3.76,6.42
				c0.03,2.48-0.63,10.79-5.34,12.37C454.12,73.65,444.07,78.37,444.19,73.65z"/>
			<path class="st27" d="M442.75,62.03c0,0-0.14,4.39,4.54,3.19c4.68-1.2,7.55-10.81,7.21-15.09c0,0-3.36,6.16-4.34,6.68
				c0,0-1.13-3.75-2.91-4.54C447.26,52.27,443.04,58.69,442.75,62.03z"/>
			<path class="st27" d="M463.23,54.86c0,0-6.72,9.53-7.48,11.79c-0.76,2.25-1.06-2.16-0.91-3.71c0.15-1.55,1.32-8.28,0.64-10.19
				c0,0,0.94,3.97,0.6,5.83C456.09,58.57,457.17,53.9,463.23,54.86z"/>
		</g>
		<g>
			<path d="M516.96,203.28c-0.05-0.53,1.68-8.37,2.16-9.64c0.49-1.27-0.36-13.11-0.36-13.11c-0.79-4.48-7.1-6.99-7.1-6.99
				c-3.35-3.68-9.19-3.15-9.19-3.15s-5.87-0.53-9.22,3.15c0,0-6.31,2.51-7.1,6.99c0,0-0.85,11.84-0.36,13.11
				c0.49,1.27,2.22,9.11,2.16,9.64c-0.05,0.53-2.31,3.11-2.31,3.11l2.8,9.05l2.8,0.53c0,0,2.98-0.16,5.31,0.68
				c1.91,0.69,4.81,1.39,5.91,1.32c1.09,0.07,4-0.63,5.91-1.32c2.32-0.84,5.31-0.68,5.31-0.68l2.8-0.53l2.8-9.05
				C519.27,206.38,517.02,203.8,516.96,203.28z"/>
			<path class="st19" d="M520.96,188.33c0-8.84-6.26-11.87-9.19-11.87c-4.04,0-7.08,3.27-7.08,8.6c0,4.03,3.66,10.46,8.7,10.74
				C516.69,195.99,520.96,194.16,520.96,188.33z"/>
			<path d="M520.06,187.95c0.25-8.21-5.96-10.43-8.29-10.43c-3.3,0-6.34,3.04-6.34,8.42c0,4.03,3.99,8.87,7.93,8.77
				C516.66,194.64,519.92,192.77,520.06,187.95z"/>
			<path class="st19" d="M511.55,180.47c-0.31,0-0.61,0.02-0.91,0.06c1.39,1.84,3.18,5.67,3.02,13.11c2.73-0.19,5.03-1.86,5.1-5.49
				C518.88,182.2,513.64,180.47,511.55,180.47z"/>
			<path class="st11" d="M510.65,180.53c-2.55,0.35-4.61,2.26-4.61,6.11c0,3.13,3.53,7.02,7.1,7.02c0.18,0,0.35-0.01,0.53-0.02
				C513.83,186.19,512.04,182.37,510.65,180.53z"/>
			<path class="st19" d="M483.95,188.33c0-8.84,6.26-11.87,9.19-11.87c4.04,0,7.08,3.27,7.08,8.6c0,4.03-3.66,10.46-8.7,10.74
				C488.22,195.99,483.95,194.16,483.95,188.33z"/>
			<path d="M484.86,187.95c-0.25-8.21,5.96-10.43,8.29-10.43c3.3,0,6.34,3.04,6.34,8.42c0,4.03-3.99,8.87-7.93,8.77
				C488.26,194.64,485,192.77,484.86,187.95z"/>
			<path class="st19" d="M493.36,180.47c0.31,0,0.61,0.02,0.91,0.06c-1.39,1.84-3.18,5.67-3.02,13.11c-2.73-0.19-5.03-1.86-5.1-5.49
				C486.03,182.2,491.28,180.47,493.36,180.47z"/>
			<path class="st11" d="M494.27,180.53c2.55,0.35,4.61,2.26,4.61,6.11c0,3.13-3.53,7.02-7.1,7.02c-0.18,0-0.35-0.01-0.53-0.02
				C491.09,186.19,492.88,182.37,494.27,180.53z"/>
			<g>
				<ellipse class="st20" cx="502.46" cy="206.22" rx="10.71" ry="10.42"/>
				<path class="st20" d="M502.46,216.92c-6.05,0-10.97-4.8-10.97-10.69c0-5.9,4.92-10.69,10.97-10.69c6.05,0,10.97,4.8,10.97,10.69
					C513.43,212.12,508.51,216.92,502.46,216.92z M502.46,196.07c-5.75,0-10.44,4.55-10.44,10.15c0,5.6,4.68,10.15,10.44,10.15
					c5.75,0,10.44-4.55,10.44-10.15C512.89,200.63,508.21,196.07,502.46,196.07z"/>
			</g>
			<g>
				<ellipse cx="502.46" cy="206.22" rx="8.54" ry="8.31"/>
				<path class="st20" d="M502.46,214.81c-4.86,0-8.81-3.85-8.81-8.58s3.95-8.58,8.81-8.58c4.86,0,8.81,3.85,8.81,8.58
					S507.31,214.81,502.46,214.81z M502.46,198.18c-4.56,0-8.27,3.61-8.27,8.04c0,4.44,3.71,8.04,8.27,8.04
					c4.56,0,8.27-3.61,8.27-8.04C510.73,201.79,507.02,198.18,502.46,198.18z"/>
			</g>
			<g>
				<ellipse cx="502.46" cy="206.22" rx="4.17" ry="4.06"/>
				<path class="st20" d="M502.46,211.22c-2.82,0-5.11-2.24-5.11-5c0-2.76,2.29-5,5.11-5c2.82,0,5.11,2.24,5.11,5
					C507.57,208.98,505.28,211.22,502.46,211.22z M502.46,203.11c-1.78,0-3.23,1.4-3.23,3.12c0,1.72,1.45,3.12,3.23,3.12
					c1.78,0,3.23-1.4,3.23-3.12C505.69,204.51,504.24,203.11,502.46,203.11z"/>
			</g>
			<ellipse class="st20" cx="502.46" cy="206.23" rx="1.5" ry="1.46"/>
			<g>
				<line x1="509.86" y1="202.07" x2="506.5" y2="203.95"/>
				
					<rect x="506.25" y="202.07" transform="matrix(0.8718 -0.4899 0.4899 0.8718 -34.2923 275.0089)" class="st20" width="3.85" height="1.88"/>
			</g>
			<g>
				<line x1="495.05" y1="202.07" x2="498.4" y2="203.95"/>
				
					<rect x="495.78" y="201.08" transform="matrix(0.49 -0.8717 0.8717 0.49 76.3713 536.5536)" class="st20" width="1.88" height="3.85"/>
			</g>
			<g>
				<rect x="501.52" y="210.76" class="st20" width="1.88" height="3.77"/>
			</g>
		</g>
	</g>
</g>
</svg>
