<?xml version="1.0" encoding="UTF-8"?>
<svg id="Layer_4" data-name="Layer 4" xmlns="http://www.w3.org/2000/svg" version="1.1" viewBox="0 0 192 192">
  <defs>
    <style>
      .cls-1 {
        fill: #231f20;
        stroke-width: 0px;
      }
    </style>
  </defs>
  <polygon class="cls-1" points="60.33 98.95 49.13 92.44 49.15 92.4 64.41 91.96 66.55 88.29 49.82 78.56 47.82 82 59.04 88.53 59.01 88.57 43.72 89.02 41.59 92.66 58.32 102.39 60.33 98.95"/>
  <polygon class="cls-1" points="78.06 75.03 75.37 72.67 68.47 80.49 64.91 77.35 71.11 70.33 68.63 68.15 62.43 75.17 59.32 72.43 66.08 64.78 63.39 62.41 53.82 73.25 68.33 86.04 78.06 75.03"/>
  <polygon class="cls-1" points="85.42 69.04 80.33 56.49 80.37 56.46 90.74 65.21 94.17 62.74 87.07 44.03 83.68 46.47 88.91 59.12 88.87 59.15 78.38 50.28 75.15 52.61 80.13 65.24 80.09 65.27 69.9 56.39 66.44 58.88 81.92 71.56 85.42 69.04"/>
  <polygon class="cls-1" points="110.86 55.15 114.9 53.82 112.58 46.78 115.67 33.23 111.16 34.71 109.28 43.36 102.59 37.53 98.06 39.02 108.5 48.01 110.86 55.15"/>
  <path class="cls-1" d="M121.64,45.9c.57,1.16,1.31,2.15,2.22,2.95.91.81,1.98,1.4,3.22,1.77,1.23.38,2.59.48,4.06.31,1.49-.17,2.79-.58,3.9-1.22,1.11-.64,2.02-1.46,2.72-2.45.71-.99,1.2-2.11,1.5-3.37.29-1.26.36-2.59.2-3.99-.16-1.44-.53-2.74-1.1-3.92-.57-1.18-1.31-2.18-2.22-3-.91-.82-1.98-1.43-3.21-1.81s-2.59-.5-4.08-.33c-1.47.17-2.77.58-3.88,1.23-1.12.65-2.03,1.48-2.73,2.49-.7,1.01-1.2,2.15-1.49,3.43-.29,1.28-.35,2.63-.19,4.07.16,1.4.52,2.68,1.09,3.84ZM124.78,39.1c.1-.81.32-1.55.66-2.21.34-.66.82-1.22,1.45-1.66.62-.44,1.41-.72,2.36-.83.95-.11,1.78-.02,2.49.28.71.29,1.3.72,1.78,1.29.48.57.87,1.24,1.14,2.01.28.77.47,1.57.56,2.42.09.81.09,1.6-.01,2.38-.1.78-.32,1.5-.67,2.16-.34.66-.83,1.21-1.45,1.65-.62.44-1.41.72-2.36.83-.95.11-1.78.02-2.49-.28-.71-.29-1.3-.72-1.78-1.28-.48-.56-.86-1.22-1.14-1.95-.28-.74-.46-1.52-.55-2.32-.1-.84-.1-1.67,0-2.48Z"/>
  <path class="cls-1" d="M147.49,42.47l4.24.41c1.06.1,1.8.41,2.23.92.42.51.66,1.28.7,2.3.03.78.04,1.6.01,2.45-.03.85.05,1.59.22,2.22l4.24.41c-.17-.29-.29-.63-.35-1.03-.06-.4-.1-.81-.1-1.25,0-.44,0-.86.03-1.28.02-.41.04-.78.05-1.08.01-.49-.01-.98-.06-1.47-.05-.49-.17-.95-.34-1.38-.18-.42-.42-.8-.74-1.13-.31-.33-.72-.59-1.23-.78v-.05c1.13-.33,1.96-.88,2.52-1.66.56-.78.89-1.74,1-2.87.07-.74,0-1.44-.19-2.1-.2-.66-.52-1.26-.97-1.79-.45-.53-1.01-.97-1.67-1.32-.66-.35-1.43-.56-2.3-.64l-10.39-.99-1.85,19.24,4.24.41.72-7.52ZM148.3,34.04l4.64.44c.97.09,1.68.37,2.12.84.45.47.62,1.17.53,2.1-.09.97-.4,1.65-.93,2.03-.53.39-1.28.53-2.25.44l-4.64-.44.52-5.42Z"/>
  <polygon class="cls-1" points="166.98 46.95 170.04 45.32 173.04 55.34 178.14 56.91 173.67 43.29 183.16 38.24 178.08 36.67 168.49 42.09 170.86 34.44 166.79 33.18 161.07 51.64 165.14 52.9 166.98 46.95"/>
  <path class="cls-1" d="M189.36,62.88c.7,1.08,1.67,2.03,2.91,2.85.99.66,2,1.11,3.03,1.36,1.03.25,2.04.29,3.04.13,1-.16,1.95-.52,2.87-1.09.92-.56,1.75-1.32,2.51-2.27l-3.43-2.27c-.86.99-1.81,1.62-2.86,1.87-1.05.26-2.12.03-3.2-.69-.8-.53-1.37-1.13-1.72-1.81-.35-.68-.53-1.39-.54-2.13,0-.74.12-1.48.39-2.23.27-.74.62-1.45,1.07-2.13.47-.71,1-1.34,1.6-1.9.6-.56,1.24-.98,1.93-1.27.69-.29,1.42-.4,2.18-.34.76.06,1.54.36,2.34.89.44.29.81.64,1.11,1.04.3.41.53.84.67,1.31.15.47.21.94.2,1.41-.01.48-.13.94-.34,1.39l3.43,2.27c.51-1,.81-2,.88-2.99.07-.99-.04-1.94-.34-2.84-.3-.9-.76-1.74-1.38-2.52-.62-.78-1.38-1.46-2.26-2.05-1.24-.82-2.49-1.34-3.77-1.55-1.28-.22-2.51-.17-3.69.15-1.19.32-2.3.87-3.35,1.66-1.05.79-1.97,1.79-2.77,2.99-.78,1.17-1.33,2.39-1.64,3.64-.31,1.25-.38,2.48-.2,3.68.18,1.2.62,2.34,1.32,3.42Z"/>
  <polygon class="cls-1" points="204.26 74.7 217.19 60.32 214.03 57.48 201.09 71.86 204.26 74.7"/>
  <polygon class="cls-1" points="209.45 79.98 212.23 83.19 224.17 72.9 227.96 77.28 230.67 74.94 220.3 62.96 217.59 65.3 221.39 69.68 209.45 79.98"/>
  <polygon class="cls-1" points="219.36 93.1 221.52 96.76 227.92 93 241.84 93.13 239.44 89.05 230.56 89.06 234.85 81.29 232.43 77.18 225.85 89.28 219.36 93.1"/>
  <path class="cls-1" d="M62.74,203.65c.98.63,1.95.9,2.9.8.95-.09,1.89-.47,2.82-1.13.6-.43,1.09-.94,1.46-1.52.37-.58.61-1.22.72-1.9.11-.69.07-1.39-.1-2.12-.18-.73-.52-1.44-1.02-2.15l-6.05-8.47-15.73,11.21,2.47,3.45,6.15-4.38,2.47,3.45c.62.86.87,1.62.76,2.28-.11.65-.53,1.33-1.27,2.03-.57.54-1.18,1.07-1.84,1.61-.66.54-1.17,1.08-1.53,1.62l2.47,3.45c.11-.32.29-.63.54-.94.26-.31.55-.6.88-.89.33-.29.65-.56.98-.81.33-.26.61-.48.85-.67.37-.31.73-.65,1.07-1.01.34-.36.61-.75.81-1.16.21-.41.33-.84.37-1.29.04-.45-.03-.93-.22-1.44l.04-.03ZM61.51,199.48l-2.7-3.78,4.43-3.15,2.7,3.78c.57.79.82,1.51.76,2.15-.06.64-.47,1.24-1.24,1.78-.79.57-1.51.78-2.14.63-.64-.15-1.24-.61-1.8-1.4Z"/>
  <path class="cls-1" d="M83.58,210.48l-8.12,8.85c-.97,1.06-1.9,1.65-2.79,1.76-.88.11-1.88-.35-3-1.37-.64-.58-1.07-1.14-1.28-1.66-.21-.53-.3-1.03-.25-1.51.05-.48.21-.94.49-1.37.27-.43.59-.84.94-1.23l8.12-8.85-3.13-2.86-8.12,8.85c-1.78,1.94-2.57,3.86-2.36,5.75.2,1.9,1.27,3.73,3.2,5.49,1.9,1.74,3.82,2.63,5.76,2.68,1.94.05,3.79-.89,5.56-2.82l8.12-8.85-3.13-2.86Z"/>
  <path class="cls-1" d="M98.01,228.68c.71-.33,1.31-.92,1.81-1.75.46-.78.72-1.5.77-2.18.06-.68-.06-1.32-.33-1.91-.28-.59-.7-1.15-1.27-1.67-.57-.52-1.25-1.02-2.04-1.49l-7.83-4.62-9.84,16.6,8.06,4.76c.75.44,1.53.78,2.34,1.01.82.23,1.62.32,2.4.26.78-.06,1.52-.3,2.21-.72.69-.42,1.28-1.05,1.78-1.89.61-1.04.89-2.08.82-3.11-.07-1.03-.53-2-1.38-2.9.96.08,1.79-.04,2.5-.37ZM92.54,232.7c-.26.43-.54.75-.86.94-.31.19-.64.3-.99.31-.35.01-.7-.04-1.07-.16-.37-.12-.73-.29-1.09-.5l-3.91-2.31,2.7-4.56,3.98,2.35c.79.47,1.32,1.03,1.59,1.68.27.65.15,1.4-.36,2.25ZM94.39,226.6c-.6.06-1.23-.1-1.88-.48l-3.7-2.19,2.3-3.88,3.42,2.02c.33.19.63.41.9.64.27.23.48.49.63.77.15.28.22.58.22.91,0,.33-.13.69-.36,1.08-.41.7-.92,1.08-1.52,1.14Z"/>
  <path class="cls-1" d="M117.6,229.5c-.39-.52-.92-.99-1.58-1.38-.66-.4-1.43-.75-2.3-1.04l-8.6-2.94-6.26,18.25,8.86,3.03c.82.28,1.65.45,2.5.51.85.06,1.64-.02,2.4-.24.75-.22,1.42-.6,2.01-1.16.59-.55,1.04-1.29,1.36-2.2.39-1.14.45-2.21.17-3.21-.28-1-.92-1.85-1.94-2.56.95-.11,1.75-.4,2.37-.87.63-.47,1.1-1.17,1.42-2.09.29-.85.4-1.62.31-2.29-.08-.68-.32-1.28-.71-1.8ZM112.03,240.72c-.16.48-.38.84-.65,1.09-.27.25-.57.42-.9.51-.33.09-.69.11-1.08.06-.39-.05-.77-.14-1.17-.27l-4.3-1.47,1.72-5.01,4.38,1.5c.87.3,1.5.74,1.89,1.32.39.58.43,1.34.11,2.28ZM113.87,232.95c-.26.77-.68,1.24-1.26,1.43-.58.18-1.22.15-1.94-.09l-4.07-1.39,1.46-4.27,3.76,1.29c.36.12.69.27,1.01.44.31.17.57.38.77.62.2.24.33.52.4.85.06.32.02.7-.13,1.12Z"/>
  <polygon class="cls-1" points="120.06 248.83 134.59 250.78 135.07 247.25 124.74 245.86 125.37 241.18 134.65 242.42 135.09 239.15 125.81 237.91 126.36 233.81 136.47 235.17 136.95 231.63 122.62 229.72 120.06 248.83"/>
  <path class="cls-1" d="M156.32,247.81c-.07-.43-.13-.85-.17-1.26-.04-.41-.08-.77-.12-1.07-.07-.48-.16-.97-.29-1.44-.13-.48-.31-.91-.55-1.31-.24-.39-.54-.72-.9-1-.36-.28-.81-.47-1.34-.58v-.05c1.05-.5,1.79-1.18,2.22-2.03.43-.86.61-1.85.54-2.98-.05-.74-.22-1.42-.52-2.04-.3-.62-.71-1.16-1.24-1.62-.53-.46-1.14-.8-1.85-1.04-.71-.24-1.5-.33-2.36-.28l-10.4.64,1.18,19.25,4.24-.26-.46-7.52,4.24-.26c1.06-.06,1.84.12,2.34.56.5.44.85,1.16,1.05,2.15.15.77.29,1.57.39,2.41.11.84.29,1.56.57,2.16l4.24-.26c-.22-.26-.38-.58-.51-.96-.12-.38-.22-.78-.29-1.21ZM150.89,239.13c-.46.46-1.18.72-2.15.78l-4.65.28-.33-5.42,4.65-.28c.97-.06,1.71.11,2.23.5.51.39.8,1.06.86,1.99.06.97-.14,1.69-.6,2.15Z"/>
  <path class="cls-1" d="M182.01,235.14c.3,1.27.25,2.41-.15,3.4-.41,1-1.22,1.73-2.43,2.18-.9.33-1.72.45-2.48.33-.75-.11-1.43-.38-2.04-.81-.6-.43-1.13-.97-1.58-1.62-.45-.65-.81-1.35-1.1-2.11-.3-.79-.5-1.59-.6-2.4-.1-.81-.07-1.58.1-2.3.17-.73.5-1.38,1-1.96.5-.58,1.19-1.04,2.09-1.37.49-.18.99-.28,1.5-.28.51,0,.99.06,1.46.22s.88.38,1.26.67c.38.29.69.65.93,1.08l3.85-1.44c-.51-1-1.15-1.82-1.91-2.46-.76-.64-1.59-1.1-2.5-1.39-.91-.28-1.86-.41-2.85-.36-.99.05-1.99.25-2.99.63-1.39.52-2.54,1.23-3.46,2.13-.92.9-1.6,1.93-2.04,3.07-.44,1.14-.64,2.37-.62,3.68.03,1.31.3,2.63.8,3.98.49,1.32,1.16,2.47,1.99,3.46.83.99,1.79,1.76,2.86,2.32,1.08.56,2.26.87,3.55.94,1.29.07,2.62-.16,4.01-.68,1.11-.42,2.07-.97,2.88-1.65.8-.69,1.43-1.48,1.88-2.38.45-.9.72-1.89.8-2.95.08-1.07-.04-2.19-.36-3.36l-3.85,1.44Z"/>
  <polygon class="cls-1" points="195.49 232.51 187.23 219.12 183.61 221.35 193.74 237.77 205.38 230.62 203.51 227.58 195.49 232.51"/>
  <path class="cls-1" d="M208.81,202.05l-3.13,2.87,8.14,8.82c.98,1.06,1.48,2.03,1.52,2.92.03.89-.51,1.85-1.62,2.87-.64.59-1.23.97-1.77,1.13-.54.17-1.05.21-1.53.12-.47-.09-.92-.29-1.32-.6-.41-.31-.79-.66-1.14-1.04l-8.14-8.82-3.13,2.87,8.14,8.82c1.78,1.94,3.63,2.88,5.54,2.84,1.91-.04,3.83-.95,5.75-2.72,1.9-1.74,2.95-3.58,3.17-5.5.21-1.92-.57-3.84-2.34-5.77l-8.14-8.82Z"/>
  <path class="cls-1" d="M231.28,194.62c-.98-.7-2-1.06-3.03-1.08-1.04-.02-2.04.35-3.01,1.12.17-.95.11-1.79-.16-2.52-.27-.74-.81-1.39-1.6-1.95-.73-.52-1.44-.84-2.11-.95-.67-.11-1.32-.06-1.93.17s-1.21.6-1.78,1.12c-.57.52-1.13,1.16-1.66,1.9l-5.28,7.39,15.73,11.21,5.44-7.61c.5-.7.9-1.45,1.21-2.24.3-.79.45-1.58.46-2.36,0-.78-.17-1.53-.53-2.25-.36-.72-.94-1.36-1.73-1.93ZM215.86,198.27l2.31-3.23c.22-.31.46-.59.71-.84.26-.25.53-.44.82-.56.29-.13.6-.17.93-.14.33.04.68.19,1.05.45.66.47,1,1.01,1.01,1.61.01.61-.2,1.22-.65,1.83l-2.5,3.5-3.68-2.62ZM229.45,200.92c-.15.35-.35.7-.59,1.04l-2.64,3.7-4.32-3.08,2.69-3.76c.53-.75,1.14-1.23,1.8-1.43.67-.21,1.41-.03,2.22.55.41.29.7.6.86.93.17.33.24.66.23,1.01-.01.34-.1.69-.25,1.05Z"/>
  <path class="cls-1" d="M49.55,174.68s.1-.03.14-.05c.78-.29,1.18-1.2.9-2.04-.28-.84-1.14-1.33-1.93-1.08,0,0-.02,0-.03,0-1.28-6.8-1.97-13.48-2.08-20.41.23-.02.45-.05.68-.07.83-.08,1.44-.85,1.37-1.72-.07-.87-.78-1.53-1.62-1.48.31-.02.62-.04.93-.06,2.06-.15,3.63-1.94,3.6-4.02-.02-.92-.02-1.85,0-2.77-2.26-.03-4.52-.04-6.78-.05,0-.77.03-1.53.06-2.3-2.12-.06-4.24-.1-6.36-.14-.03.82-.05,1.63-.06,2.45-2.26.01-4.52.03-6.79.06-.01,1.12,0,2.25.02,3.37.05,2.56,1.86,4.48,3.92,4.3.31-.02.62-.05.93-.07-.83.06-1.46.93-1.38,1.92.08,1,.83,1.72,1.66,1.63.23-.03.45-.05.68-.08,1.46,7.22,3.4,14.26,6.24,21.07,0,0-.02,0-.03,0-.79.26-1.2,1.22-.9,2.15.31.92,1.2,1.43,1.99,1.14.05-.02.1-.04.14-.05.52,1.5,2.03,2.28,3.31,1.76,1.28-.52,1.89-2.06,1.39-3.47Z"/>
  <path class="cls-1" d="M38.52,136.51s-2.57-1.94-1.55-4.56c1.02-2.62,4.15-5.27,4.79-7.16,0,0,.19,1.35-.88,3.73-1.47,3.27.75,7.2,4.59,4.57,0,.02,1.96,2.23-.59,3.66.02,0,5.08-.26,7.09-3.74,0,0-2.14.81-2.8.69.02-.06,3.51-2.11.58-6.74-.02,0,.14,3.64-2.46,3.14-2.61-.51-1.75-2.64-.78-4.37,2.96-5.3.47-8.42-4.55-11.33,2.73,3.63-3.37,7.86-5.49,9.56-3.9,3.13-6.5,12.45,2.04,12.57Z"/>
  <path class="cls-1" d="M244.66,140.95c0-.82-.03-1.63-.06-2.45-2.12.04-4.24.09-6.36.14.03.77.05,1.54.06,2.3-2.26,0-4.52.02-6.78.05.01.92.01,1.85,0,2.77-.03,2.08,1.53,3.87,3.6,4.02.31.02.62.04.93.06-.83-.05-1.55.61-1.62,1.48-.07.87.54,1.64,1.37,1.72.23.02.45.04.68.07-.11,6.93-.8,13.61-2.08,20.41,0,0-.02,0-.03,0-.8-.25-1.65.23-1.93,1.08-.28.84.12,1.76.9,2.04.05.02.1.03.14.05-.49,1.41.11,2.96,1.39,3.47,1.28.52,2.79-.26,3.31-1.76.05.02.1.03.14.05.78.29,1.68-.22,1.99-1.14.31-.92-.1-1.89-.9-2.15,0,0-.02,0-.03,0,2.83-6.82,4.77-13.85,6.24-21.07.23.03.45.05.68.08.83.1,1.58-.63,1.66-1.63.08-1-.55-1.86-1.38-1.92.31.02.62.05.93.07,2.06.18,3.87-1.73,3.92-4.3.02-1.12.03-2.25.02-3.37-2.26-.03-4.52-.05-6.79-.06Z"/>
  <path class="cls-1" d="M241.07,114.39c-5.01,2.91-7.51,6.03-4.55,11.33.97,1.73,1.83,3.86-.78,4.37-2.59.51-2.43-3.13-2.46-3.14-2.93,4.63.56,6.68.58,6.74-.66.12-2.8-.7-2.8-.69,2.01,3.48,7.08,3.75,7.09,3.74-2.55-1.43-.58-3.63-.59-3.66,3.84,2.63,6.06-1.3,4.59-4.57-1.07-2.38-.88-3.73-.88-3.73.64,1.89,3.76,4.54,4.79,7.16,1.02,2.62-1.55,4.58-1.55,4.56,8.55-.12,5.94-9.43,2.04-12.57-2.12-1.7-8.22-5.93-5.49-9.56Z"/>
  <path class="cls-1" d="M223.81,141.26c0-21.91-8.55-42.52-24.07-58.01-15.52-15.49-36.16-24.03-58.11-24.03s-42.59,8.53-58.11,24.03c-15.52,15.5-24.07,36.1-24.07,58.01s8.55,42.52,24.07,58.01c15.52,15.49,36.16,24.03,58.11,24.03s42.59-8.53,58.11-24.03c15.52-15.5,24.07-36.1,24.07-58.01ZM197.59,96.32c-.63,0-.73,8.68-.73,9.03-1.37.11-2.09.8-2.09,1.62h-1.06l-2.1,48.49h-2.64v-3.23h-4.76v5.66h-1.95c-.62,2.94-1.11,5.39-1.25,6.44.69,1.17,3.11,4.19,5.19,6.56l.97,1.11-.44,1.41-7.12,22.97-.47,1.51-1.56.29-7.12,1.34-.31.06-.31-.02s-.52-.03-1.37-.03c-2,0-7.08.16-11.09,1.61-4.68,1.69-11.94,3.52-15.51,3.52-.14,0-.27,0-.4,0-.13,0-.26,0-.4,0-3.56,0-10.82-1.83-15.51-3.52-4.02-1.45-9.1-1.61-11.09-1.61-.85,0-1.36.03-1.37.03l-.31.02-.31-.06-7.12-1.34-1.56-.29-.47-1.51-7.12-22.97-.44-1.41.97-1.11c2.08-2.37,4.5-5.39,5.19-6.56-.2-1.5-1.1-5.86-2.12-10.43h-1.47v-3.63h-.74v-4.37l-2.31-2.14-2.31,2.14v4.37h-.74v3.63h-2.61v-5.69h-.93v-20.92h-.89v-5.17h-.84v-2.47h-1.75s-.63-12.23-.63-12.23c-.02-.72-1.14-.72-1.15,0l-.63,12.21-1.75.03v2.47h-.84v5.17h-.89v20.92h-.93v7.92h-.89v1.76h-2.79v-27.64l-2.15,1.15v-1.66c0-.36-.03-5.19-.73-5.19-.83,0-.73,4.83-.73,5.19v2.24l-2.45,1.46v1.39l-2.13-.37v23.43h-1.06c-1.18-5.41-1.78-10.98-1.78-16.64,0-20.77,8.1-40.3,22.82-54.99,14.71-14.69,34.28-22.78,55.09-22.78s40.37,8.09,55.09,22.78c14.71,14.69,22.82,34.22,22.82,54.99,0,5.66-.61,11.24-1.78,16.64h-.62v-11.11h-1.09v-10.95h-.74c0-2.05-1.66-3.7-3.7-3.7s-3.7,1.66-3.7,3.7h-.74v10.95h-1.09v11.11h-2.4l-2.2-50.92h-1.06c0-.83-.72-1.51-2.09-1.62,0-.36-.13-9.03-.73-9.03Z"/>
  <path class="cls-1" d="M180.99,101.93s-.02-.01-.02-.02c-4.83-8.14-16.1-12.61-16.1-12.61-8.52-9.35-23.35-8-23.35-8,0,0-14.92-1.35-23.44,8,0,0-11.26,4.47-16.1,12.61,0,0-.01.01-.02.02-4.33,4.17-9.49,11.86-9.49,24.89,0,6.95,2.31,12.58,6.67,16.3.33.28.68.55,1.03.81.7,2.72,1.57,6.43,2.36,9.98.14.65.29,1.3.42,1.94,0,0,0,.02,0,.03.03.14.06.29.09.43,0,.02,0,.04.01.05.03.13.06.27.08.4,0,.03.01.06.02.08.03.13.05.25.08.38,0,.03.01.07.02.1.02.12.05.23.07.35,0,.04.02.08.02.12.02.11.05.22.07.33,0,.04.02.08.03.13.02.1.04.2.06.3.01.05.02.1.03.15.02.1.04.2.06.3,0,.04.02.09.03.13.02.1.04.2.06.3,0,.04.02.09.03.13.02.1.04.19.06.29,0,.04.02.09.03.13.02.09.03.17.05.26.01.05.02.1.03.16.02.08.03.15.04.23.01.06.02.12.03.17.01.07.03.14.04.21.01.06.02.11.03.17.01.07.03.14.04.21,0,.05.02.1.03.14.01.07.03.14.04.21,0,.05.02.09.03.14.01.07.03.13.04.2,0,.05.02.09.03.14.01.06.02.12.03.18,0,.05.02.09.03.14.01.06.02.11.03.17,0,.05.02.09.02.14,0,.05.02.1.03.15,0,.04.02.09.02.13,0,.05.02.1.02.14,0,.04.01.08.02.12,0,.04.01.09.02.13,0,.04.01.08.02.12,0,.04.01.08.02.11,0,.04.01.07.02.11,0,.04.01.07.02.11,0,.03,0,.06.01.09,0,.03,0,.07.01.1,0,.03,0,.06.01.09,0,.03,0,.05,0,.08,0,.03,0,.06,0,.09,0,.02,0,.04,0,.06,0,.03,0,.05,0,.07,0,.02,0,.03,0,.05,0,.02,0,.04,0,.07,0,.01,0,.02,0,.03,0,.03,0,.05,0,.07,0,.04-.01.09-.03.14-.46,1.6-5.85,7.74-5.85,7.74l7.12,22.97,7.12,1.34s0,0,.02,0c0,0,.02,0,.02,0,.01,0,.03,0,.05,0,.01,0,.03,0,.04,0,.02,0,.05,0,.08,0,.02,0,.04,0,.06,0,.03,0,.07,0,.1,0,.02,0,.05,0,.08,0,.04,0,.08,0,.12,0,.03,0,.06,0,.1,0,.05,0,.09,0,.15,0,.04,0,.07,0,.11,0,.05,0,.11,0,.17,0,.04,0,.08,0,.13,0,.06,0,.12,0,.19,0,.04,0,.09,0,.13,0,.14,0,.29,0,.44,0,.03,0,.06,0,.09,0,.13,0,.27,0,.41,0,.04,0,.09,0,.13,0,.17,0,.35,0,.54.02.02,0,.05,0,.08,0,.17,0,.34.01.51.02.05,0,.11,0,.16,0,.2.01.41.02.62.03,0,0,0,0,0,0,.21.01.43.03.65.05.06,0,.12,0,.18.01.2.02.4.03.6.05.03,0,.07,0,.1,0,.23.02.46.05.69.07.06,0,.13.01.19.02.2.02.39.05.59.07.05,0,.1.01.15.02.24.03.48.07.73.11.06,0,.12.02.17.03.2.03.41.07.61.1.06.01.12.02.18.03.25.05.5.09.74.15.05.01.1.02.15.03.21.04.42.09.63.14.06.02.13.03.19.05.25.06.5.12.74.19.03,0,.06.02.09.03.22.06.44.13.65.19.06.02.13.04.19.06.24.08.49.16.73.25.15.05.3.11.46.16.03.01.07.02.1.03.12.04.24.08.36.13.05.02.11.04.16.05.1.04.21.07.32.11.06.02.13.04.19.06.1.03.19.06.29.1.07.02.14.05.21.07.1.03.19.06.29.09.07.02.15.05.22.07.09.03.19.06.28.09.08.02.15.05.23.07.09.03.19.06.28.09.08.02.15.04.23.07.1.03.19.06.29.09.08.02.15.04.23.07.1.03.19.05.29.08.08.02.16.05.24.07.09.03.19.05.28.08.08.02.17.05.25.07.09.03.18.05.28.07.08.02.17.04.25.07.09.02.18.05.28.07.08.02.17.04.25.07.09.02.18.05.27.07.08.02.17.04.25.06.09.02.18.04.27.07.09.02.17.04.26.06.09.02.17.04.26.06.09.02.18.04.26.06.09.02.17.04.26.06.09.02.17.04.25.06.09.02.18.04.26.06.08.02.17.04.25.06.08.02.17.04.25.05.08.02.17.04.25.05.08.02.17.03.25.05.08.02.16.03.24.05.08.02.17.03.25.05.08.02.16.03.24.05.08.02.17.03.25.05.12.02.24.04.35.07.11.02.21.04.32.06.08.01.15.02.22.04.07.01.15.03.22.04.07.01.14.02.22.03.07.01.15.02.22.03.07.01.14.02.2.03.07.01.14.02.21.03.07,0,.13.02.2.03.07,0,.14.02.2.02.06,0,.13.01.19.02.06,0,.13.01.19.02.06,0,.12.01.18.02.06,0,.12.01.18.02.06,0,.11,0,.17.01.06,0,.12,0,.17.01.05,0,.11,0,.16,0,.05,0,.11,0,.16,0,.05,0,.1,0,.15,0,.03,0,.06,0,.09,0,.01,0,.03,0,.04,0,.13,0,.25,0,.36-.01.11,0,.23,0,.36.01.01,0,.03,0,.04,0,.03,0,.06,0,.09,0,.05,0,.1,0,.15,0,.05,0,.11,0,.16,0,.05,0,.1,0,.16,0,.06,0,.12,0,.17-.01.06,0,.11,0,.17-.01.06,0,.12-.01.18-.02.06,0,.12-.01.18-.02.06,0,.13-.01.19-.02.06,0,.13-.01.19-.02.06,0,.13-.02.2-.02.07,0,.13-.02.2-.03.07,0,.14-.02.21-.03.07,0,.14-.02.21-.03.07-.01.14-.02.22-.03.07-.01.14-.02.22-.03.06-.01.13-.02.2-.03.31-.05.64-.11.97-.17.07-.01.14-.03.2-.04.09-.02.18-.03.26-.05.07-.01.15-.03.22-.04.09-.02.18-.04.27-.05.08-.02.15-.03.23-.05.09-.02.18-.04.27-.06.08-.02.16-.03.24-.05.09-.02.18-.04.26-.06.08-.02.16-.04.24-.05.09-.02.18-.04.27-.06.08-.02.16-.04.25-.06.09-.02.18-.04.27-.06.08-.02.16-.04.25-.06.09-.02.18-.04.28-.07.08-.02.17-.04.25-.06.09-.02.18-.05.27-.07.08-.02.17-.04.25-.07.09-.02.18-.05.27-.07.09-.02.17-.04.26-.07.09-.02.18-.05.27-.07.09-.02.17-.05.26-.07.09-.02.18-.05.27-.07.09-.02.17-.05.26-.07.09-.02.17-.05.26-.07.09-.02.18-.05.26-.08.09-.02.17-.05.26-.07.09-.03.18-.05.27-.08.08-.02.17-.05.25-.07.09-.03.18-.05.27-.08.08-.02.16-.05.25-.07.09-.03.18-.05.27-.08.08-.02.16-.05.24-.07.09-.03.17-.06.26-.08.08-.03.16-.05.24-.08.09-.03.18-.06.27-.09.07-.02.14-.05.22-.07.09-.03.19-.06.28-.09.07-.02.13-.04.2-.07.1-.03.2-.07.3-.1.05-.02.11-.04.16-.06.15-.05.3-.11.45-.16.24-.09.48-.17.73-.25.06-.02.13-.04.19-.06.22-.07.43-.13.65-.19.03,0,.06-.02.09-.03.25-.07.5-.13.74-.19.06-.02.13-.03.19-.05.21-.05.42-.1.63-.14.05-.01.1-.02.14-.03.25-.05.5-.1.75-.15.06-.01.12-.02.17-.03.21-.04.41-.07.62-.1.06,0,.11-.02.17-.03.25-.04.49-.07.73-.11.05,0,.1-.01.14-.02.2-.03.4-.05.6-.08.06,0,.12-.01.18-.02.24-.03.47-.05.7-.07.03,0,.06,0,.09,0,.21-.02.41-.04.61-.05.06,0,.12,0,.17-.01.22-.02.44-.03.65-.05h0c.21-.01.42-.02.63-.04.05,0,.11,0,.16,0,.18,0,.35-.02.52-.02.02,0,.05,0,.07,0,.19,0,.37-.01.54-.02.04,0,.09,0,.13,0,.14,0,.28,0,.41,0,.03,0,.06,0,.09,0,.15,0,.3,0,.44,0,.04,0,.09,0,.13,0,.06,0,.13,0,.19,0,.04,0,.09,0,.13,0,.06,0,.11,0,.17,0,.04,0,.08,0,.11,0,.05,0,.1,0,.14,0,.03,0,.07,0,.1,0,.04,0,.08,0,.12,0,.03,0,.05,0,.08,0,.04,0,.07,0,.1,0,.02,0,.04,0,.06,0,.03,0,.05,0,.07,0,.01,0,.03,0,.04,0,.02,0,.03,0,.05,0,0,0,.02,0,.02,0,.01,0,.02,0,.02,0l7.12-1.34,7.12-22.97s-.2-.23-.53-.61c-.11-.13-.23-.27-.37-.43-.14-.16-.28-.33-.44-.52-.16-.18-.32-.38-.49-.58-.08-.1-.17-.21-.26-.31-1.66-2.01-3.72-4.63-3.8-5.43,0-.03,0-.06,0-.1,0,0,0-.02,0-.03,0-.04,0-.09,0-.14,0,0,0-.01,0-.02,0-.06.01-.13.02-.2,0-.01,0-.03,0-.04,0-.07.02-.14.03-.21,0-.01,0-.02,0-.04.01-.09.03-.19.04-.29,0,0,0-.02,0-.02.02-.1.03-.2.05-.31,0-.02,0-.03,0-.05.04-.24.08-.5.14-.78,0-.02,0-.03,0-.05.05-.29.11-.6.17-.93,0-.01,0-.03,0-.04.03-.16.06-.33.1-.51,0,0,0,0,0,0,.04-.18.07-.37.11-.56,0,0,0-.01,0-.02.04-.18.07-.36.11-.55,0-.02,0-.04.01-.05.08-.38.16-.78.24-1.2,0-.03.01-.05.02-.08.04-.2.09-.41.13-.62.94-4.49,2.24-10.19,3.22-13.97.35-.26.7-.53,1.03-.81,4.36-3.72,6.67-9.35,6.67-16.3,0-13.03-5.16-20.72-9.49-24.89ZM94.45,126.82c0-8.54,2.3-14.94,5.57-19.59.17-.24.33-.47.5-.69,0,0,0,0,0,0,2.05-2.73,4.43-4.81,6.83-6.35,0,0,.01,0,.02-.01.79-.5,1.59-.95,2.37-1.33.02,0,.04-.02.06-.03.18-.09.35-.17.53-.25.02,0,.04-.02.06-.03.57-.26,1.14-.49,1.7-.7.03-.01.07-.02.1-.04.15-.05.3-.11.45-.15.04-.01.08-.03.11-.04.16-.05.32-.1.48-.15.02,0,.04-.01.05-.02.18-.05.36-.11.54-.15.01,0,.02,0,.03,0,.16-.04.32-.08.47-.12.05-.01.09-.02.14-.03.12-.03.24-.06.37-.08.05-.01.1-.02.15-.03.12-.03.25-.05.37-.07.04,0,.08-.02.12-.02.16-.03.32-.05.47-.07.02,0,.03,0,.05,0,.14-.02.27-.04.4-.05.05,0,.1,0,.14-.01.1-.01.2-.02.3-.03.05,0,.1,0,.15-.01.1,0,.19-.01.29-.02.04,0,.09,0,.13,0,.13,0,.27,0,.39,0,0,0,0,0,.01,0,5.45,0,10.19,2.34,13.44,6.56.19.25.38.5.56.76,2.53,3.66,4.01,8.57,4.01,14.49,0,2.2-.43,4.68-1.23,7.23-.03.1-.07.21-.1.31-.59,1.79-1.35,3.61-2.28,5.39-.1.18-.19.37-.29.55-.9,1.64-1.93,3.24-3.09,4.72-.37.47-.75.93-1.14,1.38-.03.04-.07.07-.1.11-2.13,2.41-4.6,4.44-7.34,5.79-.49.24-.99.46-1.5.66-.46.18-.92.34-1.39.47-.46.13-.92.25-1.39.34-.32.06-.64.12-.97.16-.42.06-.85.1-1.28.13-.34.02-.69.03-1.04.03-.24,0-.48,0-.73,0-.04,0-.07,0-.11,0-.3-.01-.6-.03-.9-.05-.06,0-.12-.01-.18-.02-.24-.02-.48-.05-.73-.08-.08,0-.16-.02-.23-.03-.24-.03-.47-.07-.71-.11-.07-.01-.14-.02-.2-.03-.28-.05-.56-.11-.84-.17-.02,0-.04,0-.06-.01-.64-.15-1.27-.32-1.9-.53,0,0,0,0-.01,0-.3-.1-.61-.21-.91-.33-.02,0-.04-.01-.05-.02-2.17-.87-4.22-2.18-5.93-4,0,0,0,0,0,.01-2.82-3-4.72-7.41-4.72-13.6ZM141.48,199.35c-15.38,0-27.89-12.17-27.89-27.12s12.51-27.12,27.89-27.12,27.89,12.17,27.89,27.12-12.51,27.12-27.89,27.12ZM183.79,140.42s0,0,0-.01c-1.71,1.82-3.76,3.13-5.93,4-.02,0-.04.02-.06.02-.3.12-.6.23-.9.33,0,0-.01,0-.02,0-.63.21-1.26.39-1.9.53-.02,0-.04,0-.06.01-.28.06-.56.12-.84.17-.07.01-.14.02-.2.04-.24.04-.47.08-.71.11-.08.01-.16.02-.23.03-.24.03-.48.05-.73.08-.06,0-.12.01-.18.02-.3.02-.6.04-.9.05-.04,0-.07,0-.11,0-.24,0-.49.01-.73,0-.35,0-.7,0-1.04-.03h0c-1.8-.1-3.54-.51-5.19-1.17-.37-.15-.73-.3-1.09-.47-.3-.14-.59-.29-.88-.45-.12-.07-.25-.14-.37-.21-1.84-1.04-3.56-2.39-5.12-3.95-.31-.31-.61-.62-.9-.95-.25-.27-.49-.55-.73-.83-.04-.05-.08-.1-.12-.15-.17-.2-.34-.41-.5-.62-.54-.68-1.06-1.38-1.55-2.1-.52-.77-1.01-1.55-1.46-2.35-.21-.36-.41-.73-.6-1.09-1.25-2.39-2.21-4.86-2.82-7.23-.05-.18-.09-.36-.14-.55-.43-1.81-.66-3.56-.66-5.16,0-4.65.91-8.68,2.53-11.96.29-.6.61-1.17.95-1.72.34-.55.7-1.07,1.08-1.57,3.25-4.22,7.99-6.56,13.44-6.56,0,0,0,0,.01,0,.13,0,.26,0,.39,0,.04,0,.09,0,.13,0,.1,0,.19,0,.29.02.05,0,.1,0,.15.01.1,0,.2.02.3.03.05,0,.09,0,.14.01.13.02.27.03.4.05.02,0,.03,0,.05,0,.15.02.31.05.47.08.04,0,.08.01.12.02.12.02.24.04.37.07.05.01.1.02.15.03.12.03.24.05.37.08.04.01.09.02.13.03.16.04.32.08.48.12,0,0,.02,0,.03,0,.18.05.36.1.54.15.02,0,.04.01.06.02.16.05.32.1.48.15.04.01.07.02.11.04.15.05.3.1.45.15.03.01.07.02.1.04.56.2,1.13.43,1.7.7.02,0,.04.02.06.03.18.08.35.16.53.25.02,0,.04.02.06.03.79.39,1.58.83,2.37,1.33,0,0,.01,0,.02.01,2.41,1.53,4.79,3.62,6.83,6.35,0,0,0,0,0,0,.17.23.34.46.5.7h0c3.26,4.65,5.57,11.05,5.57,19.59,0,6.19-1.9,10.6-4.72,13.6Z"/>
  <path class="cls-1" d="M165.15,99.4c-8.4,0-16.12,7.72-16.12,21.37,0,10.23,10.14,22.49,20.15,22.26,8.4-.2,16.67-4.93,17.04-17.15.62-20.83-15.15-26.47-21.07-26.47ZM182.92,126.38c-.18,9.2-6.02,13.44-12.96,13.92-.44.03-.89.05-1.33.05-9.06,0-18.04-9.87-18.04-17.8,0-9.78,5.22-14.61,11.71-15.5.75-.1,1.53-.16,2.31-.16,5.3,0,18.62,4.39,18.32,19.5Z"/>
  <path class="cls-1" d="M113.78,143.03c10.02.24,20.15-12.03,20.15-22.26,0-13.65-7.72-21.37-16.12-21.37-5.92,0-21.69,5.65-21.07,26.47.37,12.23,8.64,16.95,17.04,17.15ZM118.36,106.88c.78,0,1.55.05,2.31.16,6.49.9,11.71,5.73,11.71,15.5,0,7.93-8.98,17.8-18.04,17.8-.45,0-.89-.02-1.33-.05-6.95-.48-12.78-4.72-12.96-13.92-.3-15.11,13.02-19.5,18.32-19.5Z"/>
  <path class="cls-1" d="M128.49,172.23c0-1.45.25-2.83.71-4.13l-7.02-3.94c-1.1,2.48-1.72,5.2-1.72,8.07,0,10.47,8.16,19.11,18.62,20.27v-7.81c-6.02-1.1-10.6-6.27-10.6-12.47Z"/>
  <path class="cls-1" d="M141.48,159.54c3.93,0,7.46,1.72,9.84,4.42l7-3.93c-3.84-4.98-9.96-8.22-16.84-8.22s-13.02,3.24-16.85,8.23l7,3.93c2.38-2.71,5.92-4.44,9.85-4.44Z"/>
  <path class="cls-1" d="M149.68,172.23c0-4.36-3.68-7.91-8.2-7.91s-8.2,3.55-8.2,7.91,3.68,7.91,8.2,7.91,8.2-3.55,8.2-7.91Z"/>
  <path class="cls-1" d="M153.75,168.08c.46,1.3.72,2.69.72,4.15,0,6.2-4.57,11.37-10.6,12.47v7.81c10.47-1.16,18.62-9.8,18.62-20.27,0-2.87-.62-5.6-1.72-8.08l-7.02,3.94Z"/>
  <path class="cls-1" d="M164.72,107.81c-.74,0-1.47.05-2.18.15-1,.14-1.97.38-2.9.72l-6.57,19.97c2.13,4.25,6.18,8.16,10.73,9.87l9.31-28.3c-3.14-1.73-6.38-2.41-8.39-2.41Z"/>
  <path class="cls-1" d="M182.03,126.22c.07-3.73-.73-6.76-2.05-9.21l-7.2,21.87c5.16-1.34,9.1-5.34,9.25-12.67Z"/>
  <path class="cls-1" d="M175.05,111.45l-9.11,27.69c.63.13,1.27.22,1.92.25l8.78-26.67c-.51-.47-1.04-.89-1.58-1.28Z"/>
  <path class="cls-1" d="M151.48,122.6c0,.8.1,1.62.29,2.45l4.85-14.73c-3.09,2.33-5.13,6.33-5.13,12.28Z"/>
  <path class="cls-1" d="M113.01,139.35l10.12-30.76c-.85-.3-1.75-.51-2.67-.64-.71-.1-1.44-.15-2.18-.15-2.36,0-6.39.92-9.98,3.38l-6.55,19.9c1.74,5.27,6.16,7.85,11.26,8.26Z"/>
  <path class="cls-1" d="M131.52,122.6c0-2.98-.52-5.48-1.42-7.52l-7.04,21.39c4.87-3.35,8.46-9,8.46-13.88Z"/>
  <path class="cls-1" d="M117.45,139.05l9.35-28.4c-.51-.43-1.06-.8-1.63-1.13l-9.83,29.86c.71-.05,1.41-.17,2.11-.33Z"/>
  <path class="cls-1" d="M100.97,125.89l3.77-11.45c-2.24,2.73-3.8,6.46-3.77,11.45Z"/>
  <path class="cls-1" d="M272.37,134.07c-.1-5.66-3.85-10.15-9.33-11.2,0-.03-.01-.07-.02-.11-.26-1.49-.56-2.98-.84-4.42-.37-1.88-.76-3.82-1.06-5.72.02-.07.06-.16.1-.22,4.63-3.71,6.14-8.86,4.13-14.13-1.68-4.4-3.48-8.81-5.36-13.11-2.19-5.01-7.05-7.66-12.7-6.93-.07-.02-.16-.06-.22-.1-1.25-1.75-2.46-3.59-3.63-5.36-.93-1.4-1.88-2.86-2.86-4.27-.04-.05-.07-.1-.09-.14.01-.02.03-.05.05-.08,3-5.14,2.27-10.79-1.96-15.12-2.56-2.62-5.15-5.2-7.66-7.68-5.67-5.63-9.78-6.5-16.25-3.15-.55-.36-1.1-.72-1.66-1.07-2.77-1.79-5.63-3.65-8.37-5.55-.05-.11-.09-.26-.09-.32.51-6-2.2-10.58-7.63-12.87-2.51-1.06-5.07-2.1-7.55-3.1-.82-.33-1.64-.66-2.46-1-7.31-2.98-11.44-2.21-16.24,3.29-.53-.09-1.06-.19-1.6-.28-3.02-.53-6.14-1.08-9.19-1.68-1.88-6.28-5.8-9.25-12.31-9.33-4.38-.05-8.35-.05-12.14,0-6.4.09-10.4,3.13-12.22,9.29,0,0,0,.01,0,.02-3.05.62-6.17,1.18-9.19,1.72-.53.09-1.06.19-1.59.28-4.54-5.44-8.7-6.27-15.83-3.41-3.4,1.37-6.72,2.71-10.01,4.07-6,2.48-8.54,6.69-7.97,13.25,0,0,0,0,0,0-2.86,1.95-5.82,3.87-8.68,5.73-.49.32-.99.64-1.48.96-6.16-3.31-10.59-2.47-15.93,2.85l-1.83,1.83c-1.97,1.96-4.01,3.99-6,6.02-4.3,4.37-5.08,9.77-2.21,15.21.02.08.02.2,0,.28-1.92,3.1-4.03,6.28-6.46,9.71-.03.02-.07.05-.11.07-6.23-.7-10.76,1.92-13.13,7.57-1.43,3.4-2.91,7.03-4.66,11.42-2.46,6.16-1.2,11,3.96,15.21-.63,3.75-1.3,7.08-2.03,10.15-.04.05-.1.1-.15.14-5.45,1.41-9.02,5.84-9.12,11.31-.08,4.95-.08,9.8,0,14.41.1,5.52,3.62,9.8,9.18,11.21.05.04.11.1.15.15.38,1.6.69,3.26,1,4.88.33,1.72.67,3.5,1.09,5.26-.03.02-.06.05-.1.08-4.74,3.4-6.39,8.61-4.42,13.93,1.75,4.72,3.66,9.38,5.68,13.84,2.19,4.84,7.58,7.48,12.8,6.29,0,0,0,.01,0,.02.96,1.51,1.96,3,2.93,4.45,1.15,1.72,2.34,3.49,3.44,5.26,0,.08,0,.2,0,.27-2.95,5.49-2.23,10.9,2.01,15.24,2.74,2.8,5.66,5.72,8.94,8.92,4.49,4.39,9.59,5.02,15.16,1.87.07,0,.17,0,.24.01,1.7,1.06,3.41,2.2,5.06,3.31,1.45.98,2.96,1.99,4.48,2.95.16.1.25.17.31.22,0,.05,0,.11-.02.2-.79,6.39,1.75,10.72,7.77,13.25,3.35,1.4,6.98,2.88,11.42,4.65,5.86,2.33,10.98.86,14.79-4.22,0,0,.01-.01.02-.02,3.06.57,6.15,1.23,9.15,1.87.47.1.95.2,1.42.3,1.67,6.37,5.82,9.37,12.94,9.41,2.21.01,4.17.02,5.97.02s3.51,0,5.14-.02c6.83-.05,10.93-3.14,12.5-9.43.53-.11,1.06-.22,1.58-.33,3.09-.64,6.02-1.24,8.98-1.76.02,0,.04.02.06.03,3.95,5.09,8.98,6.46,14.95,4.08,3.73-1.49,7.42-3.01,11.18-4.57,5.86-2.43,8.39-6.58,7.94-13.07.02-.14.12-.39.21-.5,2.83-2.06,5.98-4.17,9.62-6.46.02,0,.05,0,.08,0,5.61,3.23,10.78,2.57,15.37-1.94,2.74-2.7,5.5-5.46,8.16-8.14l.22-.23c4.67-4.69,5.45-9.84,2.35-15.74,0-.04,0-.09,0-.13,2.07-3.28,4.24-6.51,6.46-9.63.03-.02.06-.03.09-.04,6.12.78,10.77-1.83,13.12-7.38,1.93-4.56,3.49-8.34,4.88-11.89,2.32-5.9.94-10.94-4.1-14.97.63-3.75,1.3-7.07,2.04-10.15.05-.05.12-.12.17-.16,5.55-1.44,9.06-5.74,9.16-11.24.09-4.7.09-9.55,0-14.41ZM267.43,148.39c-.06,3.31-2.08,5.71-5.54,6.58-1.64.41-3.22,1.99-3.61,3.59-.8,3.33-1.52,6.92-2.2,10.98-.28,1.66.71,3.45,1.78,4.29,3.43,2.71,4.2,5.42,2.65,9.36-1.38,3.51-2.92,7.25-4.83,11.77-1.49,3.51-4.13,4.94-8.09,4.4-1.59-.22-3.56.64-4.5,1.95-2.34,3.27-4.63,6.68-6.79,10.12-.85,1.35-.93,3.43-.18,4.83,2.16,4.05,1.76,6.88-1.42,10.07l-.22.23c-2.66,2.67-5.4,5.42-8.13,8.1-3.04,2.99-5.81,3.32-9.55,1.13-1.4-.82-3.54-.8-4.88.03-3.84,2.41-7.16,4.64-10.15,6.81-1.36.99-2.29,3.03-2.17,4.75.31,4.37-1.02,6.6-4.9,8.2-3.74,1.55-7.41,3.06-11.12,4.54-3.97,1.58-6.66.83-9.28-2.61-.99-1.29-2.97-2.09-4.5-1.83-3.12.54-6.16,1.17-9.37,1.83-1.04.22-2.1.43-3.16.65-1,.2-1.78,1-1.94,2.01-.83,5-3.08,6.96-8.02,7-3.2.02-6.6.03-11.04,0-5.39-.03-7.53-1.8-8.48-7-.18-.98-.94-1.76-1.92-1.97-.99-.21-1.97-.42-2.96-.63-3.21-.69-6.53-1.4-9.83-2-.19-.03-.38-.05-.57-.05-1.6,0-3.07,1.17-3.73,2.04-2.52,3.36-5.22,4.14-9.04,2.62-4.42-1.76-8.02-3.23-11.34-4.62-3.96-1.66-5.3-3.93-4.78-8.09.37-2.98-1.28-4.39-2.55-5.2-1.46-.93-2.94-1.92-4.37-2.87-1.72-1.16-3.5-2.35-5.32-3.47-1.42-.87-3.63-.92-5.05-.11-3.68,2.11-6.49,1.8-9.4-1.05-3.25-3.18-6.15-6.07-8.86-8.84-2.74-2.8-3.12-5.91-1.16-9.51.79-1.45.75-3.65-.1-5.02-1.17-1.89-2.41-3.75-3.61-5.54-.95-1.42-1.94-2.89-2.87-4.35-1.28-2.02-2.96-2.71-5.27-2.18-2.95.68-5.98-.8-7.21-3.52-1.97-4.36-3.84-8.9-5.55-13.52-1.19-3.21-.24-6.12,2.67-8.21,1.3-.94,2.71-2.37,2.03-5.21-.4-1.66-.73-3.39-1.05-5.06-.33-1.72-.67-3.49-1.09-5.25-.39-1.63-1.97-3.21-3.6-3.61-3.41-.83-5.49-3.27-5.55-6.55-.09-4.55-.09-9.34,0-14.23.06-3.31,2.11-5.79,5.49-6.64,1.64-.41,3.22-1.97,3.6-3.55.8-3.32,1.52-6.91,2.2-10.98.28-1.64-.69-3.43-1.73-4.27-3.53-2.85-4.23-5.46-2.57-9.62,1.74-4.36,3.21-7.96,4.63-11.33,1.54-3.67,4.09-5.08,8.25-4.55,1.7.22,3.59-.89,4.43-2.08,2.54-3.59,4.74-6.91,6.75-10.16.85-1.37.89-3.52.1-5-1.92-3.6-1.49-6.62,1.34-9.5,1.97-2,4-4.02,5.97-5.98l1.84-1.83c4.1-4.09,6.31-4.36,11.25-1.35.81.49,1.83.48,2.63-.04.91-.6,1.83-1.19,2.74-1.78,2.97-1.93,6.04-3.92,9.02-5.96,1.4-.96,2.03-2.91,1.9-4.26-.4-4.44.93-6.7,4.94-8.36,3.27-1.35,6.58-2.69,9.97-4.05,5.51-2.21,7.46-1.68,11.01,3.01.56.74,1.49,1.1,2.4.94,1.01-.18,2.02-.36,3.03-.54,3.21-.57,6.52-1.16,9.78-1.84,1.8-.37,2.94-2.19,3.28-3.33,1.19-4.05,3.39-5.72,7.57-5.78,3.75-.05,7.68-.05,12.02,0,4.36.05,6.44,1.66,7.68,5.92.32,1.09,1.42,2.85,3.15,3.2,3.29.66,6.64,1.25,9.88,1.82,1,.17,2,.35,2.99.53.89.16,1.79-.18,2.36-.89,3.87-4.83,5.69-5.3,11.48-2.94.82.33,1.64.67,2.47,1,2.46,1,5,2.03,7.48,3.07,3.5,1.48,4.97,3.99,4.64,7.9-.13,1.5.53,3.64,1.99,4.66,2.87,2,5.83,3.92,8.7,5.78.96.62,1.92,1.24,2.88,1.87.78.51,1.77.54,2.58.07,5.33-3.06,7.18-2.8,11.66,1.64,2.49,2.47,5.07,5.03,7.61,7.63,2.7,2.76,3.12,5.94,1.23,9.19-1.46,2.5-.56,4.34.25,5.51.95,1.37,1.89,2.8,2.81,4.19,1.22,1.85,2.49,3.77,3.81,5.62.98,1.36,3.03,2.26,4.68,2.02,3.54-.49,6.33.97,7.66,4,1.84,4.22,3.62,8.56,5.27,12.89,1.25,3.29.36,6.17-2.66,8.56-1.29,1.02-2.11,3.05-1.86,4.61.32,2.06.72,4.11,1.12,6.09.28,1.42.57,2.88.82,4.31.18,1.05.61,3.49,3.88,4.09,3.27.59,5.33,3.07,5.39,6.46.09,4.8.09,9.59,0,14.23Z"/>
</svg>